####
#
# OBJ File Generated by Meshlab
#
####
# Object Tile2x2x2.obj
#
# Vertices: 1920
# Faces: 1440
#
####
v 0.3260000 0.1740000 0.3260000
v 0.1740000 0.1740000 0.3260000
v 0.1740000 0.3260000 0.3260000
v 0.3260000 0.3260000 0.3260000
v 0.2900000 0.2100000 0.5000000
v 0.2900000 0.2900000 0.5000000
v 0.2100000 0.2900000 0.5000000
v 0.2100000 0.2100000 0.5000000
v 0.3260000 0.1740000 0.3260000
v 0.3260000 0.3260000 0.3260000
v 0.3011355 0.3011355 0.3664117
v 0.3011355 0.1988645 0.3664117
v 0.2908994 0.2908994 0.4140559
v 0.2908994 0.2091006 0.4140559
v 0.2900000 0.2900000 0.5000000
v 0.2900000 0.2100000 0.5000000
v 0.1740000 0.1740000 0.3260000
v 0.1988645 0.1988645 0.3664117
v 0.1988645 0.3011355 0.3664117
v 0.1740000 0.3260000 0.3260000
v 0.2091006 0.2091006 0.4140559
v 0.2091006 0.2908994 0.4140559
v 0.2100000 0.2100000 0.5000000
v 0.2100000 0.2900000 0.5000000
v 0.1740000 0.3260000 0.3260000
v 0.1988645 0.3011355 0.3664117
v 0.3011355 0.3011355 0.3664117
v 0.3260000 0.3260000 0.3260000
v 0.2091006 0.2908994 0.4140559
v 0.2908994 0.2908994 0.4140559
v 0.2100000 0.2900000 0.5000000
v 0.2900000 0.2900000 0.5000000
v 0.1740000 0.1740000 0.3260000
v 0.3260000 0.1740000 0.3260000
v 0.3011355 0.1988645 0.3664117
v 0.1988645 0.1988645 0.3664117
v 0.2908994 0.2091006 0.4140559
v 0.2091006 0.2091006 0.4140559
v 0.2900000 0.2100000 0.5000000
v 0.2100000 0.2100000 0.5000000
v 0.2900000 0.2100000 0.0000000
v 0.2100000 0.2100000 0.0000000
v 0.2100000 0.2900000 0.0000000
v 0.2900000 0.2900000 0.0000000
v 0.3260000 0.1740000 0.1740000
v 0.3260000 0.3260000 0.1740000
v 0.1740000 0.3260000 0.1740000
v 0.1740000 0.1740000 0.1740000
v 0.2900000 0.2100000 0.0000000
v 0.2900000 0.2900000 0.0000000
v 0.2909006 0.2909006 0.0859559
v 0.2909006 0.2090994 0.0859559
v 0.3011395 0.3011395 0.1335992
v 0.3011395 0.1988605 0.1335992
v 0.3260000 0.3260000 0.1740000
v 0.3260000 0.1740000 0.1740000
v 0.2100000 0.2100000 0.0000000
v 0.2090994 0.2090994 0.0859559
v 0.2090994 0.2909006 0.0859559
v 0.2100000 0.2900000 0.0000000
v 0.1988605 0.1988605 0.1335992
v 0.1988605 0.3011395 0.1335992
v 0.1740000 0.1740000 0.1740000
v 0.1740000 0.3260000 0.1740000
v 0.2100000 0.2900000 0.0000000
v 0.2090994 0.2909006 0.0859559
v 0.2909006 0.2909006 0.0859559
v 0.2900000 0.2900000 0.0000000
v 0.1988605 0.3011395 0.1335992
v 0.3011395 0.3011395 0.1335992
v 0.1740000 0.3260000 0.1740000
v 0.3260000 0.3260000 0.1740000
v 0.2100000 0.2100000 0.0000000
v 0.2900000 0.2100000 0.0000000
v 0.2909006 0.2090994 0.0859559
v 0.2090994 0.2090994 0.0859559
v 0.3011395 0.1988605 0.1335992
v 0.1988605 0.1988605 0.1335992
v 0.3260000 0.1740000 0.1740000
v 0.1740000 0.1740000 0.1740000
v 0.2900000 0.5000000 0.2100000
v 0.2100000 0.5000000 0.2100000
v 0.2100000 0.5000000 0.2900000
v 0.2900000 0.5000000 0.2900000
v 0.3260000 0.3260000 0.1740000
v 0.3260000 0.3260000 0.3260000
v 0.1740000 0.3260000 0.3260000
v 0.1740000 0.3260000 0.1740000
v 0.2900000 0.5000000 0.2100000
v 0.2900000 0.5000000 0.2900000
v 0.2909006 0.4140441 0.2909006
v 0.2909006 0.4140441 0.2090994
v 0.3011395 0.3664008 0.3011395
v 0.3011395 0.3664008 0.1988605
v 0.3260000 0.3260000 0.3260000
v 0.3260000 0.3260000 0.1740000
v 0.2100000 0.5000000 0.2100000
v 0.2090994 0.4140441 0.2090994
v 0.2090994 0.4140441 0.2909006
v 0.2100000 0.5000000 0.2900000
v 0.1988605 0.3664008 0.1988605
v 0.1988605 0.3664008 0.3011395
v 0.1740000 0.3260000 0.1740000
v 0.1740000 0.3260000 0.3260000
v 0.2100000 0.5000000 0.2900000
v 0.2090994 0.4140441 0.2909006
v 0.2909006 0.4140441 0.2909006
v 0.2900000 0.5000000 0.2900000
v 0.1988605 0.3664008 0.3011395
v 0.3011395 0.3664008 0.3011395
v 0.2100000 0.5000000 0.2100000
v 0.2900000 0.5000000 0.2100000
v 0.2909006 0.4140441 0.2090994
v 0.2090994 0.4140441 0.2090994
v 0.3011395 0.3664008 0.1988605
v 0.1988605 0.3664008 0.1988605
v 0.3260000 0.1740000 0.1740000
v 0.1740000 0.1740000 0.1740000
v 0.1740000 0.1740000 0.3260000
v 0.3260000 0.1740000 0.3260000
v 0.2900000 0.0000000 0.2100000
v 0.2900000 0.0000000 0.2900000
v 0.2100000 0.0000000 0.2900000
v 0.2100000 0.0000000 0.2100000
v 0.3260000 0.1740000 0.1740000
v 0.3260000 0.1740000 0.3260000
v 0.3011355 0.1335883 0.3011355
v 0.3011355 0.1335883 0.1988645
v 0.2908994 0.0859441 0.2908994
v 0.2908994 0.0859441 0.2091006
v 0.2900000 0.0000000 0.2900000
v 0.2900000 0.0000000 0.2100000
v 0.1740000 0.1740000 0.1740000
v 0.1988645 0.1335883 0.1988645
v 0.1988645 0.1335883 0.3011355
v 0.1740000 0.1740000 0.3260000
v 0.2091006 0.0859441 0.2091006
v 0.2091006 0.0859441 0.2908994
v 0.2100000 0.0000000 0.2100000
v 0.2100000 0.0000000 0.2900000
v 0.1988645 0.1335883 0.3011355
v 0.3011355 0.1335883 0.3011355
v 0.2091006 0.0859441 0.2908994
v 0.2908994 0.0859441 0.2908994
v 0.2100000 0.0000000 0.2900000
v 0.2900000 0.0000000 0.2900000
v 0.3011355 0.1335883 0.1988645
v 0.1988645 0.1335883 0.1988645
v 0.2908994 0.0859441 0.2091006
v 0.2091006 0.0859441 0.2091006
v 0.2900000 0.0000000 0.2100000
v 0.2100000 0.0000000 0.2100000
v 0.3260000 0.3260000 0.1740000
v 0.3260000 0.1740000 0.1740000
v 0.3260000 0.1740000 0.3260000
v 0.3260000 0.3260000 0.3260000
v 0.5000000 0.2900000 0.2100000
v 0.5000000 0.2900000 0.2900000
v 0.5000000 0.2100000 0.2900000
v 0.5000000 0.2100000 0.2100000
v 0.3664117 0.3011355 0.3011355
v 0.3664117 0.3011355 0.1988645
v 0.4140559 0.2908994 0.2908994
v 0.4140559 0.2908994 0.2091006
v 0.5000000 0.2900000 0.2900000
v 0.5000000 0.2900000 0.2100000
v 0.3664117 0.1988645 0.1988645
v 0.3664117 0.1988645 0.3011355
v 0.4140559 0.2091006 0.2091006
v 0.4140559 0.2091006 0.2908994
v 0.5000000 0.2100000 0.2100000
v 0.5000000 0.2100000 0.2900000
v 0.3664117 0.1988645 0.3011355
v 0.3664117 0.3011355 0.3011355
v 0.4140559 0.2091006 0.2908994
v 0.4140559 0.2908994 0.2908994
v 0.5000000 0.2100000 0.2900000
v 0.5000000 0.2900000 0.2900000
v 0.3664117 0.3011355 0.1988645
v 0.3664117 0.1988645 0.1988645
v 0.4140559 0.2908994 0.2091006
v 0.4140559 0.2091006 0.2091006
v 0.5000000 0.2900000 0.2100000
v 0.5000000 0.2100000 0.2100000
v 0.0000000 0.2900000 0.2100000
v 0.0000000 0.2100000 0.2100000
v 0.0000000 0.2100000 0.2900000
v 0.0000000 0.2900000 0.2900000
v 0.1740000 0.3260000 0.1740000
v 0.1740000 0.3260000 0.3260000
v 0.1740000 0.1740000 0.3260000
v 0.1740000 0.1740000 0.1740000
v 0.0000000 0.2900000 0.2100000
v 0.0000000 0.2900000 0.2900000
v 0.0859559 0.2909006 0.2909006
v 0.0859559 0.2909006 0.2090994
v 0.1335992 0.3011395 0.3011395
v 0.1335992 0.3011395 0.1988605
v 0.0000000 0.2100000 0.2100000
v 0.0859559 0.2090994 0.2090994
v 0.0859559 0.2090994 0.2909006
v 0.0000000 0.2100000 0.2900000
v 0.1335992 0.1988605 0.1988605
v 0.1335992 0.1988605 0.3011395
v 0.0000000 0.2100000 0.2900000
v 0.0859559 0.2090994 0.2909006
v 0.0859559 0.2909006 0.2909006
v 0.0000000 0.2900000 0.2900000
v 0.1335992 0.1988605 0.3011395
v 0.1335992 0.3011395 0.3011395
v 0.0000000 0.2100000 0.2100000
v 0.0000000 0.2900000 0.2100000
v 0.0859559 0.2909006 0.2090994
v 0.0859559 0.2090994 0.2090994
v 0.1335992 0.3011395 0.1988605
v 0.1335992 0.1988605 0.1988605
v 0.1740000 0.3260000 0.1740000
v 0.1740000 0.1740000 0.1740000
v 0.1740000 0.1740000 0.3260000
v 0.1740000 0.3260000 0.3260000
v 0.3260000 0.3260000 0.1740000
v 0.3260000 0.3260000 0.3260000
v 0.3260000 0.1740000 0.3260000
v 0.3260000 0.1740000 0.1740000
v 0.1740000 0.3260000 0.1740000
v 0.1740000 0.3260000 0.3260000
v 0.3260000 0.3260000 0.3260000
v 0.3260000 0.3260000 0.1740000
v 0.1740000 0.1740000 0.1740000
v 0.3260000 0.1740000 0.1740000
v 0.3260000 0.1740000 0.3260000
v 0.1740000 0.1740000 0.3260000
v 0.1740000 0.1740000 0.3260000
v 0.3260000 0.1740000 0.3260000
v 0.3260000 0.3260000 0.3260000
v 0.1740000 0.3260000 0.3260000
v 0.1740000 0.1740000 0.1740000
v 0.1740000 0.3260000 0.1740000
v 0.3260000 0.3260000 0.1740000
v 0.3260000 0.1740000 0.1740000
v 0.8260000 0.1740000 0.3260000
v 0.6740000 0.1740000 0.3260000
v 0.6740000 0.3260000 0.3260000
v 0.8260000 0.3260000 0.3260000
v 0.7900000 0.2100000 0.5000000
v 0.7900000 0.2900000 0.5000000
v 0.7100000 0.2900000 0.5000000
v 0.7100000 0.2100000 0.5000000
v 0.8260000 0.1740000 0.3260000
v 0.8260000 0.3260000 0.3260000
v 0.8011355 0.3011355 0.3664117
v 0.8011355 0.1988645 0.3664117
v 0.7908994 0.2908994 0.4140559
v 0.7908994 0.2091006 0.4140559
v 0.7900000 0.2900000 0.5000000
v 0.7900000 0.2100000 0.5000000
v 0.6740000 0.1740000 0.3260000
v 0.6988645 0.1988645 0.3664117
v 0.6988645 0.3011355 0.3664117
v 0.6740000 0.3260000 0.3260000
v 0.7091006 0.2091006 0.4140559
v 0.7091006 0.2908994 0.4140559
v 0.7100000 0.2100000 0.5000000
v 0.7100000 0.2900000 0.5000000
v 0.6740000 0.3260000 0.3260000
v 0.6988645 0.3011355 0.3664117
v 0.8011355 0.3011355 0.3664117
v 0.8260000 0.3260000 0.3260000
v 0.7091006 0.2908994 0.4140559
v 0.7908994 0.2908994 0.4140559
v 0.7100000 0.2900000 0.5000000
v 0.7900000 0.2900000 0.5000000
v 0.6740000 0.1740000 0.3260000
v 0.8260000 0.1740000 0.3260000
v 0.8011355 0.1988645 0.3664117
v 0.6988645 0.1988645 0.3664117
v 0.7908994 0.2091006 0.4140559
v 0.7091006 0.2091006 0.4140559
v 0.7900000 0.2100000 0.5000000
v 0.7100000 0.2100000 0.5000000
v 0.7900000 0.2100000 0.0000000
v 0.7100000 0.2100000 0.0000000
v 0.7100000 0.2900000 0.0000000
v 0.7900000 0.2900000 0.0000000
v 0.8260000 0.1740000 0.1740000
v 0.8260000 0.3260000 0.1740000
v 0.6740000 0.3260000 0.1740000
v 0.6740000 0.1740000 0.1740000
v 0.7900000 0.2100000 0.0000000
v 0.7900000 0.2900000 0.0000000
v 0.7909006 0.2909006 0.0859559
v 0.7909006 0.2090994 0.0859559
v 0.8011395 0.3011395 0.1335992
v 0.8011395 0.1988605 0.1335992
v 0.8260000 0.3260000 0.1740000
v 0.8260000 0.1740000 0.1740000
v 0.7100000 0.2100000 0.0000000
v 0.7090994 0.2090994 0.0859559
v 0.7090994 0.2909006 0.0859559
v 0.7100000 0.2900000 0.0000000
v 0.6988605 0.1988605 0.1335992
v 0.6988605 0.3011395 0.1335992
v 0.6740000 0.1740000 0.1740000
v 0.6740000 0.3260000 0.1740000
v 0.7100000 0.2900000 0.0000000
v 0.7090994 0.2909006 0.0859559
v 0.7909006 0.2909006 0.0859559
v 0.7900000 0.2900000 0.0000000
v 0.6988605 0.3011395 0.1335992
v 0.8011395 0.3011395 0.1335992
v 0.6740000 0.3260000 0.1740000
v 0.8260000 0.3260000 0.1740000
v 0.7100000 0.2100000 0.0000000
v 0.7900000 0.2100000 0.0000000
v 0.7909006 0.2090994 0.0859559
v 0.7090994 0.2090994 0.0859559
v 0.8011395 0.1988605 0.1335992
v 0.6988605 0.1988605 0.1335992
v 0.8260000 0.1740000 0.1740000
v 0.6740000 0.1740000 0.1740000
v 0.7900000 0.5000000 0.2100000
v 0.7100000 0.5000000 0.2100000
v 0.7100000 0.5000000 0.2900000
v 0.7900000 0.5000000 0.2900000
v 0.8260000 0.3260000 0.1740000
v 0.8260000 0.3260000 0.3260000
v 0.6740000 0.3260000 0.3260000
v 0.6740000 0.3260000 0.1740000
v 0.7900000 0.5000000 0.2100000
v 0.7900000 0.5000000 0.2900000
v 0.7909006 0.4140441 0.2909006
v 0.7909006 0.4140441 0.2090994
v 0.8011395 0.3664008 0.3011395
v 0.8011395 0.3664008 0.1988605
v 0.8260000 0.3260000 0.3260000
v 0.8260000 0.3260000 0.1740000
v 0.7100000 0.5000000 0.2100000
v 0.7090994 0.4140441 0.2090994
v 0.7090994 0.4140441 0.2909006
v 0.7100000 0.5000000 0.2900000
v 0.6988605 0.3664008 0.1988605
v 0.6988605 0.3664008 0.3011395
v 0.6740000 0.3260000 0.1740000
v 0.6740000 0.3260000 0.3260000
v 0.7100000 0.5000000 0.2900000
v 0.7090994 0.4140441 0.2909006
v 0.7909006 0.4140441 0.2909006
v 0.7900000 0.5000000 0.2900000
v 0.6988605 0.3664008 0.3011395
v 0.8011395 0.3664008 0.3011395
v 0.7100000 0.5000000 0.2100000
v 0.7900000 0.5000000 0.2100000
v 0.7909006 0.4140441 0.2090994
v 0.7090994 0.4140441 0.2090994
v 0.8011395 0.3664008 0.1988605
v 0.6988605 0.3664008 0.1988605
v 0.8260000 0.1740000 0.1740000
v 0.6740000 0.1740000 0.1740000
v 0.6740000 0.1740000 0.3260000
v 0.8260000 0.1740000 0.3260000
v 0.7900000 0.0000000 0.2100000
v 0.7900000 0.0000000 0.2900000
v 0.7100000 0.0000000 0.2900000
v 0.7100000 0.0000000 0.2100000
v 0.8260000 0.1740000 0.1740000
v 0.8260000 0.1740000 0.3260000
v 0.8011355 0.1335883 0.3011355
v 0.8011355 0.1335883 0.1988645
v 0.7908994 0.0859441 0.2908994
v 0.7908994 0.0859441 0.2091006
v 0.7900000 0.0000000 0.2900000
v 0.7900000 0.0000000 0.2100000
v 0.6740000 0.1740000 0.1740000
v 0.6988645 0.1335883 0.1988645
v 0.6988645 0.1335883 0.3011355
v 0.6740000 0.1740000 0.3260000
v 0.7091006 0.0859441 0.2091006
v 0.7091006 0.0859441 0.2908994
v 0.7100000 0.0000000 0.2100000
v 0.7100000 0.0000000 0.2900000
v 0.6988645 0.1335883 0.3011355
v 0.8011355 0.1335883 0.3011355
v 0.7091006 0.0859441 0.2908994
v 0.7908994 0.0859441 0.2908994
v 0.7100000 0.0000000 0.2900000
v 0.7900000 0.0000000 0.2900000
v 0.8011355 0.1335883 0.1988645
v 0.6988645 0.1335883 0.1988645
v 0.7908994 0.0859441 0.2091006
v 0.7091006 0.0859441 0.2091006
v 0.7900000 0.0000000 0.2100000
v 0.7100000 0.0000000 0.2100000
v 0.8260000 0.3260000 0.1740000
v 0.8260000 0.1740000 0.1740000
v 0.8260000 0.1740000 0.3260000
v 0.8260000 0.3260000 0.3260000
v 1.0000000 0.2900000 0.2100000
v 1.0000000 0.2900000 0.2900000
v 1.0000000 0.2100000 0.2900000
v 1.0000000 0.2100000 0.2100000
v 0.8664117 0.3011355 0.3011355
v 0.8664117 0.3011355 0.1988645
v 0.9140559 0.2908994 0.2908994
v 0.9140559 0.2908994 0.2091006
v 1.0000000 0.2900000 0.2900000
v 1.0000000 0.2900000 0.2100000
v 0.8664117 0.1988645 0.1988645
v 0.8664117 0.1988645 0.3011355
v 0.9140559 0.2091006 0.2091006
v 0.9140559 0.2091006 0.2908994
v 1.0000000 0.2100000 0.2100000
v 1.0000000 0.2100000 0.2900000
v 0.8664117 0.1988645 0.3011355
v 0.8664117 0.3011355 0.3011355
v 0.9140559 0.2091006 0.2908994
v 0.9140559 0.2908994 0.2908994
v 1.0000000 0.2100000 0.2900000
v 1.0000000 0.2900000 0.2900000
v 0.8664117 0.3011355 0.1988645
v 0.8664117 0.1988645 0.1988645
v 0.9140559 0.2908994 0.2091006
v 0.9140559 0.2091006 0.2091006
v 1.0000000 0.2900000 0.2100000
v 1.0000000 0.2100000 0.2100000
v 0.5000000 0.2900000 0.2100000
v 0.5000000 0.2100000 0.2100000
v 0.5000000 0.2100000 0.2900000
v 0.5000000 0.2900000 0.2900000
v 0.6740000 0.3260000 0.1740000
v 0.6740000 0.3260000 0.3260000
v 0.6740000 0.1740000 0.3260000
v 0.6740000 0.1740000 0.1740000
v 0.5000000 0.2900000 0.2100000
v 0.5000000 0.2900000 0.2900000
v 0.5859559 0.2909006 0.2909006
v 0.5859559 0.2909006 0.2090994
v 0.6335992 0.3011395 0.3011395
v 0.6335992 0.3011395 0.1988605
v 0.5000000 0.2100000 0.2100000
v 0.5859559 0.2090994 0.2090994
v 0.5859559 0.2090994 0.2909006
v 0.5000000 0.2100000 0.2900000
v 0.6335992 0.1988605 0.1988605
v 0.6335992 0.1988605 0.3011395
v 0.5000000 0.2100000 0.2900000
v 0.5859559 0.2090994 0.2909006
v 0.5859559 0.2909006 0.2909006
v 0.5000000 0.2900000 0.2900000
v 0.6335992 0.1988605 0.3011395
v 0.6335992 0.3011395 0.3011395
v 0.5000000 0.2100000 0.2100000
v 0.5000000 0.2900000 0.2100000
v 0.5859559 0.2909006 0.2090994
v 0.5859559 0.2090994 0.2090994
v 0.6335992 0.3011395 0.1988605
v 0.6335992 0.1988605 0.1988605
v 0.6740000 0.3260000 0.1740000
v 0.6740000 0.1740000 0.1740000
v 0.6740000 0.1740000 0.3260000
v 0.6740000 0.3260000 0.3260000
v 0.8260000 0.3260000 0.1740000
v 0.8260000 0.3260000 0.3260000
v 0.8260000 0.1740000 0.3260000
v 0.8260000 0.1740000 0.1740000
v 0.6740000 0.3260000 0.1740000
v 0.6740000 0.3260000 0.3260000
v 0.8260000 0.3260000 0.3260000
v 0.8260000 0.3260000 0.1740000
v 0.6740000 0.1740000 0.1740000
v 0.8260000 0.1740000 0.1740000
v 0.8260000 0.1740000 0.3260000
v 0.6740000 0.1740000 0.3260000
v 0.6740000 0.1740000 0.3260000
v 0.8260000 0.1740000 0.3260000
v 0.8260000 0.3260000 0.3260000
v 0.6740000 0.3260000 0.3260000
v 0.6740000 0.1740000 0.1740000
v 0.6740000 0.3260000 0.1740000
v 0.8260000 0.3260000 0.1740000
v 0.8260000 0.1740000 0.1740000
v 0.3260000 0.6740000 0.3260000
v 0.1740000 0.6740000 0.3260000
v 0.1740000 0.8260000 0.3260000
v 0.3260000 0.8260000 0.3260000
v 0.2900000 0.7100000 0.5000000
v 0.2900000 0.7900000 0.5000000
v 0.2100000 0.7900000 0.5000000
v 0.2100000 0.7100000 0.5000000
v 0.3260000 0.6740000 0.3260000
v 0.3260000 0.8260000 0.3260000
v 0.3011355 0.8011355 0.3664117
v 0.3011355 0.6988645 0.3664117
v 0.2908994 0.7908994 0.4140559
v 0.2908994 0.7091006 0.4140559
v 0.2900000 0.7900000 0.5000000
v 0.2900000 0.7100000 0.5000000
v 0.1740000 0.6740000 0.3260000
v 0.1988645 0.6988645 0.3664117
v 0.1988645 0.8011355 0.3664117
v 0.1740000 0.8260000 0.3260000
v 0.2091006 0.7091006 0.4140559
v 0.2091006 0.7908994 0.4140559
v 0.2100000 0.7100000 0.5000000
v 0.2100000 0.7900000 0.5000000
v 0.1740000 0.8260000 0.3260000
v 0.1988645 0.8011355 0.3664117
v 0.3011355 0.8011355 0.3664117
v 0.3260000 0.8260000 0.3260000
v 0.2091006 0.7908994 0.4140559
v 0.2908994 0.7908994 0.4140559
v 0.2100000 0.7900000 0.5000000
v 0.2900000 0.7900000 0.5000000
v 0.1740000 0.6740000 0.3260000
v 0.3260000 0.6740000 0.3260000
v 0.3011355 0.6988645 0.3664117
v 0.1988645 0.6988645 0.3664117
v 0.2908994 0.7091006 0.4140559
v 0.2091006 0.7091006 0.4140559
v 0.2900000 0.7100000 0.5000000
v 0.2100000 0.7100000 0.5000000
v 0.2900000 0.7100000 0.0000000
v 0.2100000 0.7100000 0.0000000
v 0.2100000 0.7900000 0.0000000
v 0.2900000 0.7900000 0.0000000
v 0.3260000 0.6740000 0.1740000
v 0.3260000 0.8260000 0.1740000
v 0.1740000 0.8260000 0.1740000
v 0.1740000 0.6740000 0.1740000
v 0.2900000 0.7100000 0.0000000
v 0.2900000 0.7900000 0.0000000
v 0.2909006 0.7909006 0.0859559
v 0.2909006 0.7090994 0.0859559
v 0.3011395 0.8011395 0.1335992
v 0.3011395 0.6988605 0.1335992
v 0.3260000 0.8260000 0.1740000
v 0.3260000 0.6740000 0.1740000
v 0.2100000 0.7100000 0.0000000
v 0.2090994 0.7090994 0.0859559
v 0.2090994 0.7909006 0.0859559
v 0.2100000 0.7900000 0.0000000
v 0.1988605 0.6988605 0.1335992
v 0.1988605 0.8011395 0.1335992
v 0.1740000 0.6740000 0.1740000
v 0.1740000 0.8260000 0.1740000
v 0.2100000 0.7900000 0.0000000
v 0.2090994 0.7909006 0.0859559
v 0.2909006 0.7909006 0.0859559
v 0.2900000 0.7900000 0.0000000
v 0.1988605 0.8011395 0.1335992
v 0.3011395 0.8011395 0.1335992
v 0.1740000 0.8260000 0.1740000
v 0.3260000 0.8260000 0.1740000
v 0.2100000 0.7100000 0.0000000
v 0.2900000 0.7100000 0.0000000
v 0.2909006 0.7090994 0.0859559
v 0.2090994 0.7090994 0.0859559
v 0.3011395 0.6988605 0.1335992
v 0.1988605 0.6988605 0.1335992
v 0.3260000 0.6740000 0.1740000
v 0.1740000 0.6740000 0.1740000
v 0.2900000 1.0000000 0.2100000
v 0.2100000 1.0000000 0.2100000
v 0.2100000 1.0000000 0.2900000
v 0.2900000 1.0000000 0.2900000
v 0.3260000 0.8260000 0.1740000
v 0.3260000 0.8260000 0.3260000
v 0.1740000 0.8260000 0.3260000
v 0.1740000 0.8260000 0.1740000
v 0.2900000 1.0000000 0.2100000
v 0.2900000 1.0000000 0.2900000
v 0.2909006 0.9140441 0.2909006
v 0.2909006 0.9140441 0.2090994
v 0.3011395 0.8664008 0.3011395
v 0.3011395 0.8664008 0.1988605
v 0.3260000 0.8260000 0.3260000
v 0.3260000 0.8260000 0.1740000
v 0.2100000 1.0000000 0.2100000
v 0.2090994 0.9140441 0.2090994
v 0.2090994 0.9140441 0.2909006
v 0.2100000 1.0000000 0.2900000
v 0.1988605 0.8664008 0.1988605
v 0.1988605 0.8664008 0.3011395
v 0.1740000 0.8260000 0.1740000
v 0.1740000 0.8260000 0.3260000
v 0.2100000 1.0000000 0.2900000
v 0.2090994 0.9140441 0.2909006
v 0.2909006 0.9140441 0.2909006
v 0.2900000 1.0000000 0.2900000
v 0.1988605 0.8664008 0.3011395
v 0.3011395 0.8664008 0.3011395
v 0.2100000 1.0000000 0.2100000
v 0.2900000 1.0000000 0.2100000
v 0.2909006 0.9140441 0.2090994
v 0.2090994 0.9140441 0.2090994
v 0.3011395 0.8664008 0.1988605
v 0.1988605 0.8664008 0.1988605
v 0.3260000 0.6740000 0.1740000
v 0.1740000 0.6740000 0.1740000
v 0.1740000 0.6740000 0.3260000
v 0.3260000 0.6740000 0.3260000
v 0.2900000 0.5000000 0.2100000
v 0.2900000 0.5000000 0.2900000
v 0.2100000 0.5000000 0.2900000
v 0.2100000 0.5000000 0.2100000
v 0.3260000 0.6740000 0.1740000
v 0.3260000 0.6740000 0.3260000
v 0.3011355 0.6335883 0.3011355
v 0.3011355 0.6335883 0.1988645
v 0.2908994 0.5859441 0.2908994
v 0.2908994 0.5859441 0.2091006
v 0.2900000 0.5000000 0.2900000
v 0.2900000 0.5000000 0.2100000
v 0.1740000 0.6740000 0.1740000
v 0.1988645 0.6335883 0.1988645
v 0.1988645 0.6335883 0.3011355
v 0.1740000 0.6740000 0.3260000
v 0.2091006 0.5859441 0.2091006
v 0.2091006 0.5859441 0.2908994
v 0.2100000 0.5000000 0.2100000
v 0.2100000 0.5000000 0.2900000
v 0.1988645 0.6335883 0.3011355
v 0.3011355 0.6335883 0.3011355
v 0.2091006 0.5859441 0.2908994
v 0.2908994 0.5859441 0.2908994
v 0.2100000 0.5000000 0.2900000
v 0.2900000 0.5000000 0.2900000
v 0.3011355 0.6335883 0.1988645
v 0.1988645 0.6335883 0.1988645
v 0.2908994 0.5859441 0.2091006
v 0.2091006 0.5859441 0.2091006
v 0.2900000 0.5000000 0.2100000
v 0.2100000 0.5000000 0.2100000
v 0.3260000 0.8260000 0.1740000
v 0.3260000 0.6740000 0.1740000
v 0.3260000 0.6740000 0.3260000
v 0.3260000 0.8260000 0.3260000
v 0.5000000 0.7900000 0.2100000
v 0.5000000 0.7900000 0.2900000
v 0.5000000 0.7100000 0.2900000
v 0.5000000 0.7100000 0.2100000
v 0.3664117 0.8011355 0.3011355
v 0.3664117 0.8011355 0.1988645
v 0.4140559 0.7908994 0.2908994
v 0.4140559 0.7908994 0.2091006
v 0.5000000 0.7900000 0.2900000
v 0.5000000 0.7900000 0.2100000
v 0.3664117 0.6988645 0.1988645
v 0.3664117 0.6988645 0.3011355
v 0.4140559 0.7091006 0.2091006
v 0.4140559 0.7091006 0.2908994
v 0.5000000 0.7100000 0.2100000
v 0.5000000 0.7100000 0.2900000
v 0.3664117 0.6988645 0.3011355
v 0.3664117 0.8011355 0.3011355
v 0.4140559 0.7091006 0.2908994
v 0.4140559 0.7908994 0.2908994
v 0.5000000 0.7100000 0.2900000
v 0.5000000 0.7900000 0.2900000
v 0.3664117 0.8011355 0.1988645
v 0.3664117 0.6988645 0.1988645
v 0.4140559 0.7908994 0.2091006
v 0.4140559 0.7091006 0.2091006
v 0.5000000 0.7900000 0.2100000
v 0.5000000 0.7100000 0.2100000
v 0.0000000 0.7900000 0.2100000
v 0.0000000 0.7100000 0.2100000
v 0.0000000 0.7100000 0.2900000
v 0.0000000 0.7900000 0.2900000
v 0.1740000 0.8260000 0.1740000
v 0.1740000 0.8260000 0.3260000
v 0.1740000 0.6740000 0.3260000
v 0.1740000 0.6740000 0.1740000
v 0.0000000 0.7900000 0.2100000
v 0.0000000 0.7900000 0.2900000
v 0.0859559 0.7909006 0.2909006
v 0.0859559 0.7909006 0.2090994
v 0.1335992 0.8011395 0.3011395
v 0.1335992 0.8011395 0.1988605
v 0.0000000 0.7100000 0.2100000
v 0.0859559 0.7090994 0.2090994
v 0.0859559 0.7090994 0.2909006
v 0.0000000 0.7100000 0.2900000
v 0.1335992 0.6988605 0.1988605
v 0.1335992 0.6988605 0.3011395
v 0.0000000 0.7100000 0.2900000
v 0.0859559 0.7090994 0.2909006
v 0.0859559 0.7909006 0.2909006
v 0.0000000 0.7900000 0.2900000
v 0.1335992 0.6988605 0.3011395
v 0.1335992 0.8011395 0.3011395
v 0.0000000 0.7100000 0.2100000
v 0.0000000 0.7900000 0.2100000
v 0.0859559 0.7909006 0.2090994
v 0.0859559 0.7090994 0.2090994
v 0.1335992 0.8011395 0.1988605
v 0.1335992 0.6988605 0.1988605
v 0.1740000 0.8260000 0.1740000
v 0.1740000 0.6740000 0.1740000
v 0.1740000 0.6740000 0.3260000
v 0.1740000 0.8260000 0.3260000
v 0.3260000 0.8260000 0.1740000
v 0.3260000 0.8260000 0.3260000
v 0.3260000 0.6740000 0.3260000
v 0.3260000 0.6740000 0.1740000
v 0.1740000 0.8260000 0.1740000
v 0.1740000 0.8260000 0.3260000
v 0.3260000 0.8260000 0.3260000
v 0.3260000 0.8260000 0.1740000
v 0.1740000 0.6740000 0.1740000
v 0.3260000 0.6740000 0.1740000
v 0.3260000 0.6740000 0.3260000
v 0.1740000 0.6740000 0.3260000
v 0.1740000 0.6740000 0.3260000
v 0.3260000 0.6740000 0.3260000
v 0.3260000 0.8260000 0.3260000
v 0.1740000 0.8260000 0.3260000
v 0.1740000 0.6740000 0.1740000
v 0.1740000 0.8260000 0.1740000
v 0.3260000 0.8260000 0.1740000
v 0.3260000 0.6740000 0.1740000
v 0.8260000 0.6740000 0.3260000
v 0.6740000 0.6740000 0.3260000
v 0.6740000 0.8260000 0.3260000
v 0.8260000 0.8260000 0.3260000
v 0.7900000 0.7100000 0.5000000
v 0.7900000 0.7900000 0.5000000
v 0.7100000 0.7900000 0.5000000
v 0.7100000 0.7100000 0.5000000
v 0.8260000 0.6740000 0.3260000
v 0.8260000 0.8260000 0.3260000
v 0.8011355 0.8011355 0.3664117
v 0.8011355 0.6988645 0.3664117
v 0.7908994 0.7908994 0.4140559
v 0.7908994 0.7091006 0.4140559
v 0.7900000 0.7900000 0.5000000
v 0.7900000 0.7100000 0.5000000
v 0.6740000 0.6740000 0.3260000
v 0.6988645 0.6988645 0.3664117
v 0.6988645 0.8011355 0.3664117
v 0.6740000 0.8260000 0.3260000
v 0.7091006 0.7091006 0.4140559
v 0.7091006 0.7908994 0.4140559
v 0.7100000 0.7100000 0.5000000
v 0.7100000 0.7900000 0.5000000
v 0.6740000 0.8260000 0.3260000
v 0.6988645 0.8011355 0.3664117
v 0.8011355 0.8011355 0.3664117
v 0.8260000 0.8260000 0.3260000
v 0.7091006 0.7908994 0.4140559
v 0.7908994 0.7908994 0.4140559
v 0.7100000 0.7900000 0.5000000
v 0.7900000 0.7900000 0.5000000
v 0.6740000 0.6740000 0.3260000
v 0.8260000 0.6740000 0.3260000
v 0.8011355 0.6988645 0.3664117
v 0.6988645 0.6988645 0.3664117
v 0.7908994 0.7091006 0.4140559
v 0.7091006 0.7091006 0.4140559
v 0.7900000 0.7100000 0.5000000
v 0.7100000 0.7100000 0.5000000
v 0.7900000 0.7100000 0.0000000
v 0.7100000 0.7100000 0.0000000
v 0.7100000 0.7900000 0.0000000
v 0.7900000 0.7900000 0.0000000
v 0.8260000 0.6740000 0.1740000
v 0.8260000 0.8260000 0.1740000
v 0.6740000 0.8260000 0.1740000
v 0.6740000 0.6740000 0.1740000
v 0.7900000 0.7100000 0.0000000
v 0.7900000 0.7900000 0.0000000
v 0.7909006 0.7909006 0.0859559
v 0.7909006 0.7090994 0.0859559
v 0.8011395 0.8011395 0.1335992
v 0.8011395 0.6988605 0.1335992
v 0.8260000 0.8260000 0.1740000
v 0.8260000 0.6740000 0.1740000
v 0.7100000 0.7100000 0.0000000
v 0.7090994 0.7090994 0.0859559
v 0.7090994 0.7909006 0.0859559
v 0.7100000 0.7900000 0.0000000
v 0.6988605 0.6988605 0.1335992
v 0.6988605 0.8011395 0.1335992
v 0.6740000 0.6740000 0.1740000
v 0.6740000 0.8260000 0.1740000
v 0.7100000 0.7900000 0.0000000
v 0.7090994 0.7909006 0.0859559
v 0.7909006 0.7909006 0.0859559
v 0.7900000 0.7900000 0.0000000
v 0.6988605 0.8011395 0.1335992
v 0.8011395 0.8011395 0.1335992
v 0.6740000 0.8260000 0.1740000
v 0.8260000 0.8260000 0.1740000
v 0.7100000 0.7100000 0.0000000
v 0.7900000 0.7100000 0.0000000
v 0.7909006 0.7090994 0.0859559
v 0.7090994 0.7090994 0.0859559
v 0.8011395 0.6988605 0.1335992
v 0.6988605 0.6988605 0.1335992
v 0.8260000 0.6740000 0.1740000
v 0.6740000 0.6740000 0.1740000
v 0.7900000 1.0000000 0.2100000
v 0.7100000 1.0000000 0.2100000
v 0.7100000 1.0000000 0.2900000
v 0.7900000 1.0000000 0.2900000
v 0.8260000 0.8260000 0.1740000
v 0.8260000 0.8260000 0.3260000
v 0.6740000 0.8260000 0.3260000
v 0.6740000 0.8260000 0.1740000
v 0.7900000 1.0000000 0.2100000
v 0.7900000 1.0000000 0.2900000
v 0.7909006 0.9140441 0.2909006
v 0.7909006 0.9140441 0.2090994
v 0.8011395 0.8664008 0.3011395
v 0.8011395 0.8664008 0.1988605
v 0.8260000 0.8260000 0.3260000
v 0.8260000 0.8260000 0.1740000
v 0.7100000 1.0000000 0.2100000
v 0.7090994 0.9140441 0.2090994
v 0.7090994 0.9140441 0.2909006
v 0.7100000 1.0000000 0.2900000
v 0.6988605 0.8664008 0.1988605
v 0.6988605 0.8664008 0.3011395
v 0.6740000 0.8260000 0.1740000
v 0.6740000 0.8260000 0.3260000
v 0.7100000 1.0000000 0.2900000
v 0.7090994 0.9140441 0.2909006
v 0.7909006 0.9140441 0.2909006
v 0.7900000 1.0000000 0.2900000
v 0.6988605 0.8664008 0.3011395
v 0.8011395 0.8664008 0.3011395
v 0.7100000 1.0000000 0.2100000
v 0.7900000 1.0000000 0.2100000
v 0.7909006 0.9140441 0.2090994
v 0.7090994 0.9140441 0.2090994
v 0.8011395 0.8664008 0.1988605
v 0.6988605 0.8664008 0.1988605
v 0.8260000 0.6740000 0.1740000
v 0.6740000 0.6740000 0.1740000
v 0.6740000 0.6740000 0.3260000
v 0.8260000 0.6740000 0.3260000
v 0.7900000 0.5000000 0.2100000
v 0.7900000 0.5000000 0.2900000
v 0.7100000 0.5000000 0.2900000
v 0.7100000 0.5000000 0.2100000
v 0.8260000 0.6740000 0.1740000
v 0.8260000 0.6740000 0.3260000
v 0.8011355 0.6335883 0.3011355
v 0.8011355 0.6335883 0.1988645
v 0.7908994 0.5859441 0.2908994
v 0.7908994 0.5859441 0.2091006
v 0.7900000 0.5000000 0.2900000
v 0.7900000 0.5000000 0.2100000
v 0.6740000 0.6740000 0.1740000
v 0.6988645 0.6335883 0.1988645
v 0.6988645 0.6335883 0.3011355
v 0.6740000 0.6740000 0.3260000
v 0.7091006 0.5859441 0.2091006
v 0.7091006 0.5859441 0.2908994
v 0.7100000 0.5000000 0.2100000
v 0.7100000 0.5000000 0.2900000
v 0.6988645 0.6335883 0.3011355
v 0.8011355 0.6335883 0.3011355
v 0.7091006 0.5859441 0.2908994
v 0.7908994 0.5859441 0.2908994
v 0.7100000 0.5000000 0.2900000
v 0.7900000 0.5000000 0.2900000
v 0.8011355 0.6335883 0.1988645
v 0.6988645 0.6335883 0.1988645
v 0.7908994 0.5859441 0.2091006
v 0.7091006 0.5859441 0.2091006
v 0.7900000 0.5000000 0.2100000
v 0.7100000 0.5000000 0.2100000
v 0.8260000 0.8260000 0.1740000
v 0.8260000 0.6740000 0.1740000
v 0.8260000 0.6740000 0.3260000
v 0.8260000 0.8260000 0.3260000
v 1.0000000 0.7900000 0.2100000
v 1.0000000 0.7900000 0.2900000
v 1.0000000 0.7100000 0.2900000
v 1.0000000 0.7100000 0.2100000
v 0.8664117 0.8011355 0.3011355
v 0.8664117 0.8011355 0.1988645
v 0.9140559 0.7908994 0.2908994
v 0.9140559 0.7908994 0.2091006
v 1.0000000 0.7900000 0.2900000
v 1.0000000 0.7900000 0.2100000
v 0.8664117 0.6988645 0.1988645
v 0.8664117 0.6988645 0.3011355
v 0.9140559 0.7091006 0.2091006
v 0.9140559 0.7091006 0.2908994
v 1.0000000 0.7100000 0.2100000
v 1.0000000 0.7100000 0.2900000
v 0.8664117 0.6988645 0.3011355
v 0.8664117 0.8011355 0.3011355
v 0.9140559 0.7091006 0.2908994
v 0.9140559 0.7908994 0.2908994
v 1.0000000 0.7100000 0.2900000
v 1.0000000 0.7900000 0.2900000
v 0.8664117 0.8011355 0.1988645
v 0.8664117 0.6988645 0.1988645
v 0.9140559 0.7908994 0.2091006
v 0.9140559 0.7091006 0.2091006
v 1.0000000 0.7900000 0.2100000
v 1.0000000 0.7100000 0.2100000
v 0.5000000 0.7900000 0.2100000
v 0.5000000 0.7100000 0.2100000
v 0.5000000 0.7100000 0.2900000
v 0.5000000 0.7900000 0.2900000
v 0.6740000 0.8260000 0.1740000
v 0.6740000 0.8260000 0.3260000
v 0.6740000 0.6740000 0.3260000
v 0.6740000 0.6740000 0.1740000
v 0.5000000 0.7900000 0.2100000
v 0.5000000 0.7900000 0.2900000
v 0.5859559 0.7909006 0.2909006
v 0.5859559 0.7909006 0.2090994
v 0.6335992 0.8011395 0.3011395
v 0.6335992 0.8011395 0.1988605
v 0.5000000 0.7100000 0.2100000
v 0.5859559 0.7090994 0.2090994
v 0.5859559 0.7090994 0.2909006
v 0.5000000 0.7100000 0.2900000
v 0.6335992 0.6988605 0.1988605
v 0.6335992 0.6988605 0.3011395
v 0.5000000 0.7100000 0.2900000
v 0.5859559 0.7090994 0.2909006
v 0.5859559 0.7909006 0.2909006
v 0.5000000 0.7900000 0.2900000
v 0.6335992 0.6988605 0.3011395
v 0.6335992 0.8011395 0.3011395
v 0.5000000 0.7100000 0.2100000
v 0.5000000 0.7900000 0.2100000
v 0.5859559 0.7909006 0.2090994
v 0.5859559 0.7090994 0.2090994
v 0.6335992 0.8011395 0.1988605
v 0.6335992 0.6988605 0.1988605
v 0.6740000 0.8260000 0.1740000
v 0.6740000 0.6740000 0.1740000
v 0.6740000 0.6740000 0.3260000
v 0.6740000 0.8260000 0.3260000
v 0.8260000 0.8260000 0.1740000
v 0.8260000 0.8260000 0.3260000
v 0.8260000 0.6740000 0.3260000
v 0.8260000 0.6740000 0.1740000
v 0.6740000 0.8260000 0.1740000
v 0.6740000 0.8260000 0.3260000
v 0.8260000 0.8260000 0.3260000
v 0.8260000 0.8260000 0.1740000
v 0.6740000 0.6740000 0.1740000
v 0.8260000 0.6740000 0.1740000
v 0.8260000 0.6740000 0.3260000
v 0.6740000 0.6740000 0.3260000
v 0.6740000 0.6740000 0.3260000
v 0.8260000 0.6740000 0.3260000
v 0.8260000 0.8260000 0.3260000
v 0.6740000 0.8260000 0.3260000
v 0.6740000 0.6740000 0.1740000
v 0.6740000 0.8260000 0.1740000
v 0.8260000 0.8260000 0.1740000
v 0.8260000 0.6740000 0.1740000
v 0.3260000 0.1740000 0.8260000
v 0.1740000 0.1740000 0.8260000
v 0.1740000 0.3260000 0.8260000
v 0.3260000 0.3260000 0.8260000
v 0.2900000 0.2100000 1.0000000
v 0.2900000 0.2900000 1.0000000
v 0.2100000 0.2900000 1.0000000
v 0.2100000 0.2100000 1.0000000
v 0.3260000 0.1740000 0.8260000
v 0.3260000 0.3260000 0.8260000
v 0.3011355 0.3011355 0.8664117
v 0.3011355 0.1988645 0.8664117
v 0.2908994 0.2908994 0.9140559
v 0.2908994 0.2091006 0.9140559
v 0.2900000 0.2900000 1.0000000
v 0.2900000 0.2100000 1.0000000
v 0.1740000 0.1740000 0.8260000
v 0.1988645 0.1988645 0.8664117
v 0.1988645 0.3011355 0.8664117
v 0.1740000 0.3260000 0.8260000
v 0.2091006 0.2091006 0.9140559
v 0.2091006 0.2908994 0.9140559
v 0.2100000 0.2100000 1.0000000
v 0.2100000 0.2900000 1.0000000
v 0.1740000 0.3260000 0.8260000
v 0.1988645 0.3011355 0.8664117
v 0.3011355 0.3011355 0.8664117
v 0.3260000 0.3260000 0.8260000
v 0.2091006 0.2908994 0.9140559
v 0.2908994 0.2908994 0.9140559
v 0.2100000 0.2900000 1.0000000
v 0.2900000 0.2900000 1.0000000
v 0.1740000 0.1740000 0.8260000
v 0.3260000 0.1740000 0.8260000
v 0.3011355 0.1988645 0.8664117
v 0.1988645 0.1988645 0.8664117
v 0.2908994 0.2091006 0.9140559
v 0.2091006 0.2091006 0.9140559
v 0.2900000 0.2100000 1.0000000
v 0.2100000 0.2100000 1.0000000
v 0.2900000 0.2100000 0.5000000
v 0.2100000 0.2100000 0.5000000
v 0.2100000 0.2900000 0.5000000
v 0.2900000 0.2900000 0.5000000
v 0.3260000 0.1740000 0.6740000
v 0.3260000 0.3260000 0.6740000
v 0.1740000 0.3260000 0.6740000
v 0.1740000 0.1740000 0.6740000
v 0.2900000 0.2100000 0.5000000
v 0.2900000 0.2900000 0.5000000
v 0.2909006 0.2909006 0.5859559
v 0.2909006 0.2090994 0.5859559
v 0.3011395 0.3011395 0.6335992
v 0.3011395 0.1988605 0.6335992
v 0.3260000 0.3260000 0.6740000
v 0.3260000 0.1740000 0.6740000
v 0.2100000 0.2100000 0.5000000
v 0.2090994 0.2090994 0.5859559
v 0.2090994 0.2909006 0.5859559
v 0.2100000 0.2900000 0.5000000
v 0.1988605 0.1988605 0.6335992
v 0.1988605 0.3011395 0.6335992
v 0.1740000 0.1740000 0.6740000
v 0.1740000 0.3260000 0.6740000
v 0.2100000 0.2900000 0.5000000
v 0.2090994 0.2909006 0.5859559
v 0.2909006 0.2909006 0.5859559
v 0.2900000 0.2900000 0.5000000
v 0.1988605 0.3011395 0.6335992
v 0.3011395 0.3011395 0.6335992
v 0.1740000 0.3260000 0.6740000
v 0.3260000 0.3260000 0.6740000
v 0.2100000 0.2100000 0.5000000
v 0.2900000 0.2100000 0.5000000
v 0.2909006 0.2090994 0.5859559
v 0.2090994 0.2090994 0.5859559
v 0.3011395 0.1988605 0.6335992
v 0.1988605 0.1988605 0.6335992
v 0.3260000 0.1740000 0.6740000
v 0.1740000 0.1740000 0.6740000
v 0.2900000 0.5000000 0.7100000
v 0.2100000 0.5000000 0.7100000
v 0.2100000 0.5000000 0.7900000
v 0.2900000 0.5000000 0.7900000
v 0.3260000 0.3260000 0.6740000
v 0.3260000 0.3260000 0.8260000
v 0.1740000 0.3260000 0.8260000
v 0.1740000 0.3260000 0.6740000
v 0.2900000 0.5000000 0.7100000
v 0.2900000 0.5000000 0.7900000
v 0.2909006 0.4140441 0.7909006
v 0.2909006 0.4140441 0.7090994
v 0.3011395 0.3664008 0.8011395
v 0.3011395 0.3664008 0.6988605
v 0.3260000 0.3260000 0.8260000
v 0.3260000 0.3260000 0.6740000
v 0.2100000 0.5000000 0.7100000
v 0.2090994 0.4140441 0.7090994
v 0.2090994 0.4140441 0.7909006
v 0.2100000 0.5000000 0.7900000
v 0.1988605 0.3664008 0.6988605
v 0.1988605 0.3664008 0.8011395
v 0.1740000 0.3260000 0.6740000
v 0.1740000 0.3260000 0.8260000
v 0.2100000 0.5000000 0.7900000
v 0.2090994 0.4140441 0.7909006
v 0.2909006 0.4140441 0.7909006
v 0.2900000 0.5000000 0.7900000
v 0.1988605 0.3664008 0.8011395
v 0.3011395 0.3664008 0.8011395
v 0.2100000 0.5000000 0.7100000
v 0.2900000 0.5000000 0.7100000
v 0.2909006 0.4140441 0.7090994
v 0.2090994 0.4140441 0.7090994
v 0.3011395 0.3664008 0.6988605
v 0.1988605 0.3664008 0.6988605
v 0.3260000 0.1740000 0.6740000
v 0.1740000 0.1740000 0.6740000
v 0.1740000 0.1740000 0.8260000
v 0.3260000 0.1740000 0.8260000
v 0.2900000 0.0000000 0.7100000
v 0.2900000 0.0000000 0.7900000
v 0.2100000 0.0000000 0.7900000
v 0.2100000 0.0000000 0.7100000
v 0.3260000 0.1740000 0.6740000
v 0.3260000 0.1740000 0.8260000
v 0.3011355 0.1335883 0.8011355
v 0.3011355 0.1335883 0.6988645
v 0.2908994 0.0859441 0.7908994
v 0.2908994 0.0859441 0.7091006
v 0.2900000 0.0000000 0.7900000
v 0.2900000 0.0000000 0.7100000
v 0.1740000 0.1740000 0.6740000
v 0.1988645 0.1335883 0.6988645
v 0.1988645 0.1335883 0.8011355
v 0.1740000 0.1740000 0.8260000
v 0.2091006 0.0859441 0.7091006
v 0.2091006 0.0859441 0.7908994
v 0.2100000 0.0000000 0.7100000
v 0.2100000 0.0000000 0.7900000
v 0.1988645 0.1335883 0.8011355
v 0.3011355 0.1335883 0.8011355
v 0.2091006 0.0859441 0.7908994
v 0.2908994 0.0859441 0.7908994
v 0.2100000 0.0000000 0.7900000
v 0.2900000 0.0000000 0.7900000
v 0.3011355 0.1335883 0.6988645
v 0.1988645 0.1335883 0.6988645
v 0.2908994 0.0859441 0.7091006
v 0.2091006 0.0859441 0.7091006
v 0.2900000 0.0000000 0.7100000
v 0.2100000 0.0000000 0.7100000
v 0.3260000 0.3260000 0.6740000
v 0.3260000 0.1740000 0.6740000
v 0.3260000 0.1740000 0.8260000
v 0.3260000 0.3260000 0.8260000
v 0.5000000 0.2900000 0.7100000
v 0.5000000 0.2900000 0.7900000
v 0.5000000 0.2100000 0.7900000
v 0.5000000 0.2100000 0.7100000
v 0.3664117 0.3011355 0.8011355
v 0.3664117 0.3011355 0.6988645
v 0.4140559 0.2908994 0.7908994
v 0.4140559 0.2908994 0.7091006
v 0.5000000 0.2900000 0.7900000
v 0.5000000 0.2900000 0.7100000
v 0.3664117 0.1988645 0.6988645
v 0.3664117 0.1988645 0.8011355
v 0.4140559 0.2091006 0.7091006
v 0.4140559 0.2091006 0.7908994
v 0.5000000 0.2100000 0.7100000
v 0.5000000 0.2100000 0.7900000
v 0.3664117 0.1988645 0.8011355
v 0.3664117 0.3011355 0.8011355
v 0.4140559 0.2091006 0.7908994
v 0.4140559 0.2908994 0.7908994
v 0.5000000 0.2100000 0.7900000
v 0.5000000 0.2900000 0.7900000
v 0.3664117 0.3011355 0.6988645
v 0.3664117 0.1988645 0.6988645
v 0.4140559 0.2908994 0.7091006
v 0.4140559 0.2091006 0.7091006
v 0.5000000 0.2900000 0.7100000
v 0.5000000 0.2100000 0.7100000
v 0.0000000 0.2900000 0.7100000
v 0.0000000 0.2100000 0.7100000
v 0.0000000 0.2100000 0.7900000
v 0.0000000 0.2900000 0.7900000
v 0.1740000 0.3260000 0.6740000
v 0.1740000 0.3260000 0.8260000
v 0.1740000 0.1740000 0.8260000
v 0.1740000 0.1740000 0.6740000
v 0.0000000 0.2900000 0.7100000
v 0.0000000 0.2900000 0.7900000
v 0.0859559 0.2909006 0.7909006
v 0.0859559 0.2909006 0.7090994
v 0.1335992 0.3011395 0.8011395
v 0.1335992 0.3011395 0.6988605
v 0.0000000 0.2100000 0.7100000
v 0.0859559 0.2090994 0.7090994
v 0.0859559 0.2090994 0.7909006
v 0.0000000 0.2100000 0.7900000
v 0.1335992 0.1988605 0.6988605
v 0.1335992 0.1988605 0.8011395
v 0.0000000 0.2100000 0.7900000
v 0.0859559 0.2090994 0.7909006
v 0.0859559 0.2909006 0.7909006
v 0.0000000 0.2900000 0.7900000
v 0.1335992 0.1988605 0.8011395
v 0.1335992 0.3011395 0.8011395
v 0.0000000 0.2100000 0.7100000
v 0.0000000 0.2900000 0.7100000
v 0.0859559 0.2909006 0.7090994
v 0.0859559 0.2090994 0.7090994
v 0.1335992 0.3011395 0.6988605
v 0.1335992 0.1988605 0.6988605
v 0.1740000 0.3260000 0.6740000
v 0.1740000 0.1740000 0.6740000
v 0.1740000 0.1740000 0.8260000
v 0.1740000 0.3260000 0.8260000
v 0.3260000 0.3260000 0.6740000
v 0.3260000 0.3260000 0.8260000
v 0.3260000 0.1740000 0.8260000
v 0.3260000 0.1740000 0.6740000
v 0.1740000 0.3260000 0.6740000
v 0.1740000 0.3260000 0.8260000
v 0.3260000 0.3260000 0.8260000
v 0.3260000 0.3260000 0.6740000
v 0.1740000 0.1740000 0.6740000
v 0.3260000 0.1740000 0.6740000
v 0.3260000 0.1740000 0.8260000
v 0.1740000 0.1740000 0.8260000
v 0.1740000 0.1740000 0.8260000
v 0.3260000 0.1740000 0.8260000
v 0.3260000 0.3260000 0.8260000
v 0.1740000 0.3260000 0.8260000
v 0.1740000 0.1740000 0.6740000
v 0.1740000 0.3260000 0.6740000
v 0.3260000 0.3260000 0.6740000
v 0.3260000 0.1740000 0.6740000
v 0.8260000 0.1740000 0.8260000
v 0.6740000 0.1740000 0.8260000
v 0.6740000 0.3260000 0.8260000
v 0.8260000 0.3260000 0.8260000
v 0.7900000 0.2100000 1.0000000
v 0.7900000 0.2900000 1.0000000
v 0.7100000 0.2900000 1.0000000
v 0.7100000 0.2100000 1.0000000
v 0.8260000 0.1740000 0.8260000
v 0.8260000 0.3260000 0.8260000
v 0.8011355 0.3011355 0.8664117
v 0.8011355 0.1988645 0.8664117
v 0.7908994 0.2908994 0.9140559
v 0.7908994 0.2091006 0.9140559
v 0.7900000 0.2900000 1.0000000
v 0.7900000 0.2100000 1.0000000
v 0.6740000 0.1740000 0.8260000
v 0.6988645 0.1988645 0.8664117
v 0.6988645 0.3011355 0.8664117
v 0.6740000 0.3260000 0.8260000
v 0.7091006 0.2091006 0.9140559
v 0.7091006 0.2908994 0.9140559
v 0.7100000 0.2100000 1.0000000
v 0.7100000 0.2900000 1.0000000
v 0.6740000 0.3260000 0.8260000
v 0.6988645 0.3011355 0.8664117
v 0.8011355 0.3011355 0.8664117
v 0.8260000 0.3260000 0.8260000
v 0.7091006 0.2908994 0.9140559
v 0.7908994 0.2908994 0.9140559
v 0.7100000 0.2900000 1.0000000
v 0.7900000 0.2900000 1.0000000
v 0.6740000 0.1740000 0.8260000
v 0.8260000 0.1740000 0.8260000
v 0.8011355 0.1988645 0.8664117
v 0.6988645 0.1988645 0.8664117
v 0.7908994 0.2091006 0.9140559
v 0.7091006 0.2091006 0.9140559
v 0.7900000 0.2100000 1.0000000
v 0.7100000 0.2100000 1.0000000
v 0.7900000 0.2100000 0.5000000
v 0.7100000 0.2100000 0.5000000
v 0.7100000 0.2900000 0.5000000
v 0.7900000 0.2900000 0.5000000
v 0.8260000 0.1740000 0.6740000
v 0.8260000 0.3260000 0.6740000
v 0.6740000 0.3260000 0.6740000
v 0.6740000 0.1740000 0.6740000
v 0.7900000 0.2100000 0.5000000
v 0.7900000 0.2900000 0.5000000
v 0.7909006 0.2909006 0.5859559
v 0.7909006 0.2090994 0.5859559
v 0.8011395 0.3011395 0.6335992
v 0.8011395 0.1988605 0.6335992
v 0.8260000 0.3260000 0.6740000
v 0.8260000 0.1740000 0.6740000
v 0.7100000 0.2100000 0.5000000
v 0.7090994 0.2090994 0.5859559
v 0.7090994 0.2909006 0.5859559
v 0.7100000 0.2900000 0.5000000
v 0.6988605 0.1988605 0.6335992
v 0.6988605 0.3011395 0.6335992
v 0.6740000 0.1740000 0.6740000
v 0.6740000 0.3260000 0.6740000
v 0.7100000 0.2900000 0.5000000
v 0.7090994 0.2909006 0.5859559
v 0.7909006 0.2909006 0.5859559
v 0.7900000 0.2900000 0.5000000
v 0.6988605 0.3011395 0.6335992
v 0.8011395 0.3011395 0.6335992
v 0.6740000 0.3260000 0.6740000
v 0.8260000 0.3260000 0.6740000
v 0.7100000 0.2100000 0.5000000
v 0.7900000 0.2100000 0.5000000
v 0.7909006 0.2090994 0.5859559
v 0.7090994 0.2090994 0.5859559
v 0.8011395 0.1988605 0.6335992
v 0.6988605 0.1988605 0.6335992
v 0.8260000 0.1740000 0.6740000
v 0.6740000 0.1740000 0.6740000
v 0.7900000 0.5000000 0.7100000
v 0.7100000 0.5000000 0.7100000
v 0.7100000 0.5000000 0.7900000
v 0.7900000 0.5000000 0.7900000
v 0.8260000 0.3260000 0.6740000
v 0.8260000 0.3260000 0.8260000
v 0.6740000 0.3260000 0.8260000
v 0.6740000 0.3260000 0.6740000
v 0.7900000 0.5000000 0.7100000
v 0.7900000 0.5000000 0.7900000
v 0.7909006 0.4140441 0.7909006
v 0.7909006 0.4140441 0.7090994
v 0.8011395 0.3664008 0.8011395
v 0.8011395 0.3664008 0.6988605
v 0.8260000 0.3260000 0.8260000
v 0.8260000 0.3260000 0.6740000
v 0.7100000 0.5000000 0.7100000
v 0.7090994 0.4140441 0.7090994
v 0.7090994 0.4140441 0.7909006
v 0.7100000 0.5000000 0.7900000
v 0.6988605 0.3664008 0.6988605
v 0.6988605 0.3664008 0.8011395
v 0.6740000 0.3260000 0.6740000
v 0.6740000 0.3260000 0.8260000
v 0.7100000 0.5000000 0.7900000
v 0.7090994 0.4140441 0.7909006
v 0.7909006 0.4140441 0.7909006
v 0.7900000 0.5000000 0.7900000
v 0.6988605 0.3664008 0.8011395
v 0.8011395 0.3664008 0.8011395
v 0.7100000 0.5000000 0.7100000
v 0.7900000 0.5000000 0.7100000
v 0.7909006 0.4140441 0.7090994
v 0.7090994 0.4140441 0.7090994
v 0.8011395 0.3664008 0.6988605
v 0.6988605 0.3664008 0.6988605
v 0.8260000 0.1740000 0.6740000
v 0.6740000 0.1740000 0.6740000
v 0.6740000 0.1740000 0.8260000
v 0.8260000 0.1740000 0.8260000
v 0.7900000 0.0000000 0.7100000
v 0.7900000 0.0000000 0.7900000
v 0.7100000 0.0000000 0.7900000
v 0.7100000 0.0000000 0.7100000
v 0.8260000 0.1740000 0.6740000
v 0.8260000 0.1740000 0.8260000
v 0.8011355 0.1335883 0.8011355
v 0.8011355 0.1335883 0.6988645
v 0.7908994 0.0859441 0.7908994
v 0.7908994 0.0859441 0.7091006
v 0.7900000 0.0000000 0.7900000
v 0.7900000 0.0000000 0.7100000
v 0.6740000 0.1740000 0.6740000
v 0.6988645 0.1335883 0.6988645
v 0.6988645 0.1335883 0.8011355
v 0.6740000 0.1740000 0.8260000
v 0.7091006 0.0859441 0.7091006
v 0.7091006 0.0859441 0.7908994
v 0.7100000 0.0000000 0.7100000
v 0.7100000 0.0000000 0.7900000
v 0.6988645 0.1335883 0.8011355
v 0.8011355 0.1335883 0.8011355
v 0.7091006 0.0859441 0.7908994
v 0.7908994 0.0859441 0.7908994
v 0.7100000 0.0000000 0.7900000
v 0.7900000 0.0000000 0.7900000
v 0.8011355 0.1335883 0.6988645
v 0.6988645 0.1335883 0.6988645
v 0.7908994 0.0859441 0.7091006
v 0.7091006 0.0859441 0.7091006
v 0.7900000 0.0000000 0.7100000
v 0.7100000 0.0000000 0.7100000
v 0.8260000 0.3260000 0.6740000
v 0.8260000 0.1740000 0.6740000
v 0.8260000 0.1740000 0.8260000
v 0.8260000 0.3260000 0.8260000
v 1.0000000 0.2900000 0.7100000
v 1.0000000 0.2900000 0.7900000
v 1.0000000 0.2100000 0.7900000
v 1.0000000 0.2100000 0.7100000
v 0.8664117 0.3011355 0.8011355
v 0.8664117 0.3011355 0.6988645
v 0.9140559 0.2908994 0.7908994
v 0.9140559 0.2908994 0.7091006
v 1.0000000 0.2900000 0.7900000
v 1.0000000 0.2900000 0.7100000
v 0.8664117 0.1988645 0.6988645
v 0.8664117 0.1988645 0.8011355
v 0.9140559 0.2091006 0.7091006
v 0.9140559 0.2091006 0.7908994
v 1.0000000 0.2100000 0.7100000
v 1.0000000 0.2100000 0.7900000
v 0.8664117 0.1988645 0.8011355
v 0.8664117 0.3011355 0.8011355
v 0.9140559 0.2091006 0.7908994
v 0.9140559 0.2908994 0.7908994
v 1.0000000 0.2100000 0.7900000
v 1.0000000 0.2900000 0.7900000
v 0.8664117 0.3011355 0.6988645
v 0.8664117 0.1988645 0.6988645
v 0.9140559 0.2908994 0.7091006
v 0.9140559 0.2091006 0.7091006
v 1.0000000 0.2900000 0.7100000
v 1.0000000 0.2100000 0.7100000
v 0.5000000 0.2900000 0.7100000
v 0.5000000 0.2100000 0.7100000
v 0.5000000 0.2100000 0.7900000
v 0.5000000 0.2900000 0.7900000
v 0.6740000 0.3260000 0.6740000
v 0.6740000 0.3260000 0.8260000
v 0.6740000 0.1740000 0.8260000
v 0.6740000 0.1740000 0.6740000
v 0.5000000 0.2900000 0.7100000
v 0.5000000 0.2900000 0.7900000
v 0.5859559 0.2909006 0.7909006
v 0.5859559 0.2909006 0.7090994
v 0.6335992 0.3011395 0.8011395
v 0.6335992 0.3011395 0.6988605
v 0.5000000 0.2100000 0.7100000
v 0.5859559 0.2090994 0.7090994
v 0.5859559 0.2090994 0.7909006
v 0.5000000 0.2100000 0.7900000
v 0.6335992 0.1988605 0.6988605
v 0.6335992 0.1988605 0.8011395
v 0.5000000 0.2100000 0.7900000
v 0.5859559 0.2090994 0.7909006
v 0.5859559 0.2909006 0.7909006
v 0.5000000 0.2900000 0.7900000
v 0.6335992 0.1988605 0.8011395
v 0.6335992 0.3011395 0.8011395
v 0.5000000 0.2100000 0.7100000
v 0.5000000 0.2900000 0.7100000
v 0.5859559 0.2909006 0.7090994
v 0.5859559 0.2090994 0.7090994
v 0.6335992 0.3011395 0.6988605
v 0.6335992 0.1988605 0.6988605
v 0.6740000 0.3260000 0.6740000
v 0.6740000 0.1740000 0.6740000
v 0.6740000 0.1740000 0.8260000
v 0.6740000 0.3260000 0.8260000
v 0.8260000 0.3260000 0.6740000
v 0.8260000 0.3260000 0.8260000
v 0.8260000 0.1740000 0.8260000
v 0.8260000 0.1740000 0.6740000
v 0.6740000 0.3260000 0.6740000
v 0.6740000 0.3260000 0.8260000
v 0.8260000 0.3260000 0.8260000
v 0.8260000 0.3260000 0.6740000
v 0.6740000 0.1740000 0.6740000
v 0.8260000 0.1740000 0.6740000
v 0.8260000 0.1740000 0.8260000
v 0.6740000 0.1740000 0.8260000
v 0.6740000 0.1740000 0.8260000
v 0.8260000 0.1740000 0.8260000
v 0.8260000 0.3260000 0.8260000
v 0.6740000 0.3260000 0.8260000
v 0.6740000 0.1740000 0.6740000
v 0.6740000 0.3260000 0.6740000
v 0.8260000 0.3260000 0.6740000
v 0.8260000 0.1740000 0.6740000
v 0.3260000 0.6740000 0.8260000
v 0.1740000 0.6740000 0.8260000
v 0.1740000 0.8260000 0.8260000
v 0.3260000 0.8260000 0.8260000
v 0.2900000 0.7100000 1.0000000
v 0.2900000 0.7900000 1.0000000
v 0.2100000 0.7900000 1.0000000
v 0.2100000 0.7100000 1.0000000
v 0.3260000 0.6740000 0.8260000
v 0.3260000 0.8260000 0.8260000
v 0.3011355 0.8011355 0.8664117
v 0.3011355 0.6988645 0.8664117
v 0.2908994 0.7908994 0.9140559
v 0.2908994 0.7091006 0.9140559
v 0.2900000 0.7900000 1.0000000
v 0.2900000 0.7100000 1.0000000
v 0.1740000 0.6740000 0.8260000
v 0.1988645 0.6988645 0.8664117
v 0.1988645 0.8011355 0.8664117
v 0.1740000 0.8260000 0.8260000
v 0.2091006 0.7091006 0.9140559
v 0.2091006 0.7908994 0.9140559
v 0.2100000 0.7100000 1.0000000
v 0.2100000 0.7900000 1.0000000
v 0.1740000 0.8260000 0.8260000
v 0.1988645 0.8011355 0.8664117
v 0.3011355 0.8011355 0.8664117
v 0.3260000 0.8260000 0.8260000
v 0.2091006 0.7908994 0.9140559
v 0.2908994 0.7908994 0.9140559
v 0.2100000 0.7900000 1.0000000
v 0.2900000 0.7900000 1.0000000
v 0.1740000 0.6740000 0.8260000
v 0.3260000 0.6740000 0.8260000
v 0.3011355 0.6988645 0.8664117
v 0.1988645 0.6988645 0.8664117
v 0.2908994 0.7091006 0.9140559
v 0.2091006 0.7091006 0.9140559
v 0.2900000 0.7100000 1.0000000
v 0.2100000 0.7100000 1.0000000
v 0.2900000 0.7100000 0.5000000
v 0.2100000 0.7100000 0.5000000
v 0.2100000 0.7900000 0.5000000
v 0.2900000 0.7900000 0.5000000
v 0.3260000 0.6740000 0.6740000
v 0.3260000 0.8260000 0.6740000
v 0.1740000 0.8260000 0.6740000
v 0.1740000 0.6740000 0.6740000
v 0.2900000 0.7100000 0.5000000
v 0.2900000 0.7900000 0.5000000
v 0.2909006 0.7909006 0.5859559
v 0.2909006 0.7090994 0.5859559
v 0.3011395 0.8011395 0.6335992
v 0.3011395 0.6988605 0.6335992
v 0.3260000 0.8260000 0.6740000
v 0.3260000 0.6740000 0.6740000
v 0.2100000 0.7100000 0.5000000
v 0.2090994 0.7090994 0.5859559
v 0.2090994 0.7909006 0.5859559
v 0.2100000 0.7900000 0.5000000
v 0.1988605 0.6988605 0.6335992
v 0.1988605 0.8011395 0.6335992
v 0.1740000 0.6740000 0.6740000
v 0.1740000 0.8260000 0.6740000
v 0.2100000 0.7900000 0.5000000
v 0.2090994 0.7909006 0.5859559
v 0.2909006 0.7909006 0.5859559
v 0.2900000 0.7900000 0.5000000
v 0.1988605 0.8011395 0.6335992
v 0.3011395 0.8011395 0.6335992
v 0.1740000 0.8260000 0.6740000
v 0.3260000 0.8260000 0.6740000
v 0.2100000 0.7100000 0.5000000
v 0.2900000 0.7100000 0.5000000
v 0.2909006 0.7090994 0.5859559
v 0.2090994 0.7090994 0.5859559
v 0.3011395 0.6988605 0.6335992
v 0.1988605 0.6988605 0.6335992
v 0.3260000 0.6740000 0.6740000
v 0.1740000 0.6740000 0.6740000
v 0.2900000 1.0000000 0.7100000
v 0.2100000 1.0000000 0.7100000
v 0.2100000 1.0000000 0.7900000
v 0.2900000 1.0000000 0.7900000
v 0.3260000 0.8260000 0.6740000
v 0.3260000 0.8260000 0.8260000
v 0.1740000 0.8260000 0.8260000
v 0.1740000 0.8260000 0.6740000
v 0.2900000 1.0000000 0.7100000
v 0.2900000 1.0000000 0.7900000
v 0.2909006 0.9140441 0.7909006
v 0.2909006 0.9140441 0.7090994
v 0.3011395 0.8664008 0.8011395
v 0.3011395 0.8664008 0.6988605
v 0.3260000 0.8260000 0.8260000
v 0.3260000 0.8260000 0.6740000
v 0.2100000 1.0000000 0.7100000
v 0.2090994 0.9140441 0.7090994
v 0.2090994 0.9140441 0.7909006
v 0.2100000 1.0000000 0.7900000
v 0.1988605 0.8664008 0.6988605
v 0.1988605 0.8664008 0.8011395
v 0.1740000 0.8260000 0.6740000
v 0.1740000 0.8260000 0.8260000
v 0.2100000 1.0000000 0.7900000
v 0.2090994 0.9140441 0.7909006
v 0.2909006 0.9140441 0.7909006
v 0.2900000 1.0000000 0.7900000
v 0.1988605 0.8664008 0.8011395
v 0.3011395 0.8664008 0.8011395
v 0.2100000 1.0000000 0.7100000
v 0.2900000 1.0000000 0.7100000
v 0.2909006 0.9140441 0.7090994
v 0.2090994 0.9140441 0.7090994
v 0.3011395 0.8664008 0.6988605
v 0.1988605 0.8664008 0.6988605
v 0.3260000 0.6740000 0.6740000
v 0.1740000 0.6740000 0.6740000
v 0.1740000 0.6740000 0.8260000
v 0.3260000 0.6740000 0.8260000
v 0.2900000 0.5000000 0.7100000
v 0.2900000 0.5000000 0.7900000
v 0.2100000 0.5000000 0.7900000
v 0.2100000 0.5000000 0.7100000
v 0.3260000 0.6740000 0.6740000
v 0.3260000 0.6740000 0.8260000
v 0.3011355 0.6335883 0.8011355
v 0.3011355 0.6335883 0.6988645
v 0.2908994 0.5859441 0.7908994
v 0.2908994 0.5859441 0.7091006
v 0.2900000 0.5000000 0.7900000
v 0.2900000 0.5000000 0.7100000
v 0.1740000 0.6740000 0.6740000
v 0.1988645 0.6335883 0.6988645
v 0.1988645 0.6335883 0.8011355
v 0.1740000 0.6740000 0.8260000
v 0.2091006 0.5859441 0.7091006
v 0.2091006 0.5859441 0.7908994
v 0.2100000 0.5000000 0.7100000
v 0.2100000 0.5000000 0.7900000
v 0.1988645 0.6335883 0.8011355
v 0.3011355 0.6335883 0.8011355
v 0.2091006 0.5859441 0.7908994
v 0.2908994 0.5859441 0.7908994
v 0.2100000 0.5000000 0.7900000
v 0.2900000 0.5000000 0.7900000
v 0.3011355 0.6335883 0.6988645
v 0.1988645 0.6335883 0.6988645
v 0.2908994 0.5859441 0.7091006
v 0.2091006 0.5859441 0.7091006
v 0.2900000 0.5000000 0.7100000
v 0.2100000 0.5000000 0.7100000
v 0.3260000 0.8260000 0.6740000
v 0.3260000 0.6740000 0.6740000
v 0.3260000 0.6740000 0.8260000
v 0.3260000 0.8260000 0.8260000
v 0.5000000 0.7900000 0.7100000
v 0.5000000 0.7900000 0.7900000
v 0.5000000 0.7100000 0.7900000
v 0.5000000 0.7100000 0.7100000
v 0.3664117 0.8011355 0.8011355
v 0.3664117 0.8011355 0.6988645
v 0.4140559 0.7908994 0.7908994
v 0.4140559 0.7908994 0.7091006
v 0.5000000 0.7900000 0.7900000
v 0.5000000 0.7900000 0.7100000
v 0.3664117 0.6988645 0.6988645
v 0.3664117 0.6988645 0.8011355
v 0.4140559 0.7091006 0.7091006
v 0.4140559 0.7091006 0.7908994
v 0.5000000 0.7100000 0.7100000
v 0.5000000 0.7100000 0.7900000
v 0.3664117 0.6988645 0.8011355
v 0.3664117 0.8011355 0.8011355
v 0.4140559 0.7091006 0.7908994
v 0.4140559 0.7908994 0.7908994
v 0.5000000 0.7100000 0.7900000
v 0.5000000 0.7900000 0.7900000
v 0.3664117 0.8011355 0.6988645
v 0.3664117 0.6988645 0.6988645
v 0.4140559 0.7908994 0.7091006
v 0.4140559 0.7091006 0.7091006
v 0.5000000 0.7900000 0.7100000
v 0.5000000 0.7100000 0.7100000
v 0.0000000 0.7900000 0.7100000
v 0.0000000 0.7100000 0.7100000
v 0.0000000 0.7100000 0.7900000
v 0.0000000 0.7900000 0.7900000
v 0.1740000 0.8260000 0.6740000
v 0.1740000 0.8260000 0.8260000
v 0.1740000 0.6740000 0.8260000
v 0.1740000 0.6740000 0.6740000
v 0.0000000 0.7900000 0.7100000
v 0.0000000 0.7900000 0.7900000
v 0.0859559 0.7909006 0.7909006
v 0.0859559 0.7909006 0.7090994
v 0.1335992 0.8011395 0.8011395
v 0.1335992 0.8011395 0.6988605
v 0.0000000 0.7100000 0.7100000
v 0.0859559 0.7090994 0.7090994
v 0.0859559 0.7090994 0.7909006
v 0.0000000 0.7100000 0.7900000
v 0.1335992 0.6988605 0.6988605
v 0.1335992 0.6988605 0.8011395
v 0.0000000 0.7100000 0.7900000
v 0.0859559 0.7090994 0.7909006
v 0.0859559 0.7909006 0.7909006
v 0.0000000 0.7900000 0.7900000
v 0.1335992 0.6988605 0.8011395
v 0.1335992 0.8011395 0.8011395
v 0.0000000 0.7100000 0.7100000
v 0.0000000 0.7900000 0.7100000
v 0.0859559 0.7909006 0.7090994
v 0.0859559 0.7090994 0.7090994
v 0.1335992 0.8011395 0.6988605
v 0.1335992 0.6988605 0.6988605
v 0.1740000 0.8260000 0.6740000
v 0.1740000 0.6740000 0.6740000
v 0.1740000 0.6740000 0.8260000
v 0.1740000 0.8260000 0.8260000
v 0.3260000 0.8260000 0.6740000
v 0.3260000 0.8260000 0.8260000
v 0.3260000 0.6740000 0.8260000
v 0.3260000 0.6740000 0.6740000
v 0.1740000 0.8260000 0.6740000
v 0.1740000 0.8260000 0.8260000
v 0.3260000 0.8260000 0.8260000
v 0.3260000 0.8260000 0.6740000
v 0.1740000 0.6740000 0.6740000
v 0.3260000 0.6740000 0.6740000
v 0.3260000 0.6740000 0.8260000
v 0.1740000 0.6740000 0.8260000
v 0.1740000 0.6740000 0.8260000
v 0.3260000 0.6740000 0.8260000
v 0.3260000 0.8260000 0.8260000
v 0.1740000 0.8260000 0.8260000
v 0.1740000 0.6740000 0.6740000
v 0.1740000 0.8260000 0.6740000
v 0.3260000 0.8260000 0.6740000
v 0.3260000 0.6740000 0.6740000
v 0.8260000 0.6740000 0.8260000
v 0.6740000 0.6740000 0.8260000
v 0.6740000 0.8260000 0.8260000
v 0.8260000 0.8260000 0.8260000
v 0.7900000 0.7100000 1.0000000
v 0.7900000 0.7900000 1.0000000
v 0.7100000 0.7900000 1.0000000
v 0.7100000 0.7100000 1.0000000
v 0.8260000 0.6740000 0.8260000
v 0.8260000 0.8260000 0.8260000
v 0.8011355 0.8011355 0.8664117
v 0.8011355 0.6988645 0.8664117
v 0.7908994 0.7908994 0.9140559
v 0.7908994 0.7091006 0.9140559
v 0.7900000 0.7900000 1.0000000
v 0.7900000 0.7100000 1.0000000
v 0.6740000 0.6740000 0.8260000
v 0.6988645 0.6988645 0.8664117
v 0.6988645 0.8011355 0.8664117
v 0.6740000 0.8260000 0.8260000
v 0.7091006 0.7091006 0.9140559
v 0.7091006 0.7908994 0.9140559
v 0.7100000 0.7100000 1.0000000
v 0.7100000 0.7900000 1.0000000
v 0.6740000 0.8260000 0.8260000
v 0.6988645 0.8011355 0.8664117
v 0.8011355 0.8011355 0.8664117
v 0.8260000 0.8260000 0.8260000
v 0.7091006 0.7908994 0.9140559
v 0.7908994 0.7908994 0.9140559
v 0.7100000 0.7900000 1.0000000
v 0.7900000 0.7900000 1.0000000
v 0.6740000 0.6740000 0.8260000
v 0.8260000 0.6740000 0.8260000
v 0.8011355 0.6988645 0.8664117
v 0.6988645 0.6988645 0.8664117
v 0.7908994 0.7091006 0.9140559
v 0.7091006 0.7091006 0.9140559
v 0.7900000 0.7100000 1.0000000
v 0.7100000 0.7100000 1.0000000
v 0.7900000 0.7100000 0.5000000
v 0.7100000 0.7100000 0.5000000
v 0.7100000 0.7900000 0.5000000
v 0.7900000 0.7900000 0.5000000
v 0.8260000 0.6740000 0.6740000
v 0.8260000 0.8260000 0.6740000
v 0.6740000 0.8260000 0.6740000
v 0.6740000 0.6740000 0.6740000
v 0.7900000 0.7100000 0.5000000
v 0.7900000 0.7900000 0.5000000
v 0.7909006 0.7909006 0.5859559
v 0.7909006 0.7090994 0.5859559
v 0.8011395 0.8011395 0.6335992
v 0.8011395 0.6988605 0.6335992
v 0.8260000 0.8260000 0.6740000
v 0.8260000 0.6740000 0.6740000
v 0.7100000 0.7100000 0.5000000
v 0.7090994 0.7090994 0.5859559
v 0.7090994 0.7909006 0.5859559
v 0.7100000 0.7900000 0.5000000
v 0.6988605 0.6988605 0.6335992
v 0.6988605 0.8011395 0.6335992
v 0.6740000 0.6740000 0.6740000
v 0.6740000 0.8260000 0.6740000
v 0.7100000 0.7900000 0.5000000
v 0.7090994 0.7909006 0.5859559
v 0.7909006 0.7909006 0.5859559
v 0.7900000 0.7900000 0.5000000
v 0.6988605 0.8011395 0.6335992
v 0.8011395 0.8011395 0.6335992
v 0.6740000 0.8260000 0.6740000
v 0.8260000 0.8260000 0.6740000
v 0.7100000 0.7100000 0.5000000
v 0.7900000 0.7100000 0.5000000
v 0.7909006 0.7090994 0.5859559
v 0.7090994 0.7090994 0.5859559
v 0.8011395 0.6988605 0.6335992
v 0.6988605 0.6988605 0.6335992
v 0.8260000 0.6740000 0.6740000
v 0.6740000 0.6740000 0.6740000
v 0.7900000 1.0000000 0.7100000
v 0.7100000 1.0000000 0.7100000
v 0.7100000 1.0000000 0.7900000
v 0.7900000 1.0000000 0.7900000
v 0.8260000 0.8260000 0.6740000
v 0.8260000 0.8260000 0.8260000
v 0.6740000 0.8260000 0.8260000
v 0.6740000 0.8260000 0.6740000
v 0.7900000 1.0000000 0.7100000
v 0.7900000 1.0000000 0.7900000
v 0.7909006 0.9140441 0.7909006
v 0.7909006 0.9140441 0.7090994
v 0.8011395 0.8664008 0.8011395
v 0.8011395 0.8664008 0.6988605
v 0.8260000 0.8260000 0.8260000
v 0.8260000 0.8260000 0.6740000
v 0.7100000 1.0000000 0.7100000
v 0.7090994 0.9140441 0.7090994
v 0.7090994 0.9140441 0.7909006
v 0.7100000 1.0000000 0.7900000
v 0.6988605 0.8664008 0.6988605
v 0.6988605 0.8664008 0.8011395
v 0.6740000 0.8260000 0.6740000
v 0.6740000 0.8260000 0.8260000
v 0.7100000 1.0000000 0.7900000
v 0.7090994 0.9140441 0.7909006
v 0.7909006 0.9140441 0.7909006
v 0.7900000 1.0000000 0.7900000
v 0.6988605 0.8664008 0.8011395
v 0.8011395 0.8664008 0.8011395
v 0.7100000 1.0000000 0.7100000
v 0.7900000 1.0000000 0.7100000
v 0.7909006 0.9140441 0.7090994
v 0.7090994 0.9140441 0.7090994
v 0.8011395 0.8664008 0.6988605
v 0.6988605 0.8664008 0.6988605
v 0.8260000 0.6740000 0.6740000
v 0.6740000 0.6740000 0.6740000
v 0.6740000 0.6740000 0.8260000
v 0.8260000 0.6740000 0.8260000
v 0.7900000 0.5000000 0.7100000
v 0.7900000 0.5000000 0.7900000
v 0.7100000 0.5000000 0.7900000
v 0.7100000 0.5000000 0.7100000
v 0.8260000 0.6740000 0.6740000
v 0.8260000 0.6740000 0.8260000
v 0.8011355 0.6335883 0.8011355
v 0.8011355 0.6335883 0.6988645
v 0.7908994 0.5859441 0.7908994
v 0.7908994 0.5859441 0.7091006
v 0.7900000 0.5000000 0.7900000
v 0.7900000 0.5000000 0.7100000
v 0.6740000 0.6740000 0.6740000
v 0.6988645 0.6335883 0.6988645
v 0.6988645 0.6335883 0.8011355
v 0.6740000 0.6740000 0.8260000
v 0.7091006 0.5859441 0.7091006
v 0.7091006 0.5859441 0.7908994
v 0.7100000 0.5000000 0.7100000
v 0.7100000 0.5000000 0.7900000
v 0.6988645 0.6335883 0.8011355
v 0.8011355 0.6335883 0.8011355
v 0.7091006 0.5859441 0.7908994
v 0.7908994 0.5859441 0.7908994
v 0.7100000 0.5000000 0.7900000
v 0.7900000 0.5000000 0.7900000
v 0.8011355 0.6335883 0.6988645
v 0.6988645 0.6335883 0.6988645
v 0.7908994 0.5859441 0.7091006
v 0.7091006 0.5859441 0.7091006
v 0.7900000 0.5000000 0.7100000
v 0.7100000 0.5000000 0.7100000
v 0.8260000 0.8260000 0.6740000
v 0.8260000 0.6740000 0.6740000
v 0.8260000 0.6740000 0.8260000
v 0.8260000 0.8260000 0.8260000
v 1.0000000 0.7900000 0.7100000
v 1.0000000 0.7900000 0.7900000
v 1.0000000 0.7100000 0.7900000
v 1.0000000 0.7100000 0.7100000
v 0.8664117 0.8011355 0.8011355
v 0.8664117 0.8011355 0.6988645
v 0.9140559 0.7908994 0.7908994
v 0.9140559 0.7908994 0.7091006
v 1.0000000 0.7900000 0.7900000
v 1.0000000 0.7900000 0.7100000
v 0.8664117 0.6988645 0.6988645
v 0.8664117 0.6988645 0.8011355
v 0.9140559 0.7091006 0.7091006
v 0.9140559 0.7091006 0.7908994
v 1.0000000 0.7100000 0.7100000
v 1.0000000 0.7100000 0.7900000
v 0.8664117 0.6988645 0.8011355
v 0.8664117 0.8011355 0.8011355
v 0.9140559 0.7091006 0.7908994
v 0.9140559 0.7908994 0.7908994
v 1.0000000 0.7100000 0.7900000
v 1.0000000 0.7900000 0.7900000
v 0.8664117 0.8011355 0.6988645
v 0.8664117 0.6988645 0.6988645
v 0.9140559 0.7908994 0.7091006
v 0.9140559 0.7091006 0.7091006
v 1.0000000 0.7900000 0.7100000
v 1.0000000 0.7100000 0.7100000
v 0.5000000 0.7900000 0.7100000
v 0.5000000 0.7100000 0.7100000
v 0.5000000 0.7100000 0.7900000
v 0.5000000 0.7900000 0.7900000
v 0.6740000 0.8260000 0.6740000
v 0.6740000 0.8260000 0.8260000
v 0.6740000 0.6740000 0.8260000
v 0.6740000 0.6740000 0.6740000
v 0.5000000 0.7900000 0.7100000
v 0.5000000 0.7900000 0.7900000
v 0.5859559 0.7909006 0.7909006
v 0.5859559 0.7909006 0.7090994
v 0.6335992 0.8011395 0.8011395
v 0.6335992 0.8011395 0.6988605
v 0.5000000 0.7100000 0.7100000
v 0.5859559 0.7090994 0.7090994
v 0.5859559 0.7090994 0.7909006
v 0.5000000 0.7100000 0.7900000
v 0.6335992 0.6988605 0.6988605
v 0.6335992 0.6988605 0.8011395
v 0.5000000 0.7100000 0.7900000
v 0.5859559 0.7090994 0.7909006
v 0.5859559 0.7909006 0.7909006
v 0.5000000 0.7900000 0.7900000
v 0.6335992 0.6988605 0.8011395
v 0.6335992 0.8011395 0.8011395
v 0.5000000 0.7100000 0.7100000
v 0.5000000 0.7900000 0.7100000
v 0.5859559 0.7909006 0.7090994
v 0.5859559 0.7090994 0.7090994
v 0.6335992 0.8011395 0.6988605
v 0.6335992 0.6988605 0.6988605
v 0.6740000 0.8260000 0.6740000
v 0.6740000 0.6740000 0.6740000
v 0.6740000 0.6740000 0.8260000
v 0.6740000 0.8260000 0.8260000
v 0.8260000 0.8260000 0.6740000
v 0.8260000 0.8260000 0.8260000
v 0.8260000 0.6740000 0.8260000
v 0.8260000 0.6740000 0.6740000
v 0.6740000 0.8260000 0.6740000
v 0.6740000 0.8260000 0.8260000
v 0.8260000 0.8260000 0.8260000
v 0.8260000 0.8260000 0.6740000
v 0.6740000 0.6740000 0.6740000
v 0.8260000 0.6740000 0.6740000
v 0.8260000 0.6740000 0.8260000
v 0.6740000 0.6740000 0.8260000
v 0.6740000 0.6740000 0.8260000
v 0.8260000 0.6740000 0.8260000
v 0.8260000 0.8260000 0.8260000
v 0.6740000 0.8260000 0.8260000
v 0.6740000 0.6740000 0.6740000
v 0.6740000 0.8260000 0.6740000
v 0.8260000 0.8260000 0.6740000
v 0.8260000 0.6740000 0.6740000
# 1920 vertices, 0 vertices normals

f 1 2 3
f 1 3 4
f 5 6 7
f 5 7 8
f 9 10 11
f 9 11 12
f 12 11 13
f 12 13 14
f 14 13 15
f 14 15 16
f 17 18 19
f 17 19 20
f 18 21 22
f 18 22 19
f 21 23 24
f 21 24 22
f 25 26 27
f 25 27 28
f 26 29 30
f 26 30 27
f 29 31 32
f 29 32 30
f 33 34 35
f 33 35 36
f 36 35 37
f 36 37 38
f 38 37 39
f 38 39 40
f 41 42 43
f 41 43 44
f 45 46 47
f 45 47 48
f 49 50 51
f 49 51 52
f 52 51 53
f 52 53 54
f 54 53 55
f 54 55 56
f 57 58 59
f 57 59 60
f 58 61 62
f 58 62 59
f 61 63 64
f 61 64 62
f 65 66 67
f 65 67 68
f 66 69 70
f 66 70 67
f 69 71 72
f 69 72 70
f 73 74 75
f 73 75 76
f 76 75 77
f 76 77 78
f 78 77 79
f 78 79 80
f 81 82 83
f 81 83 84
f 85 86 87
f 85 87 88
f 89 90 91
f 89 91 92
f 92 91 93
f 92 93 94
f 94 93 95
f 94 95 96
f 97 98 99
f 97 99 100
f 98 101 102
f 98 102 99
f 101 103 104
f 101 104 102
f 105 106 107
f 105 107 108
f 106 109 110
f 106 110 107
f 109 25 28
f 109 28 110
f 111 112 113
f 111 113 114
f 114 113 115
f 114 115 116
f 116 115 72
f 116 72 71
f 117 118 119
f 117 119 120
f 121 122 123
f 121 123 124
f 125 126 127
f 125 127 128
f 128 127 129
f 128 129 130
f 130 129 131
f 130 131 132
f 133 134 135
f 133 135 136
f 134 137 138
f 134 138 135
f 137 139 140
f 137 140 138
f 33 141 142
f 33 142 34
f 141 143 144
f 141 144 142
f 143 145 146
f 143 146 144
f 80 79 147
f 80 147 148
f 148 147 149
f 148 149 150
f 150 149 151
f 150 151 152
f 153 154 155
f 153 155 156
f 157 158 159
f 157 159 160
f 96 95 161
f 96 161 162
f 162 161 163
f 162 163 164
f 164 163 165
f 164 165 166
f 125 167 168
f 125 168 126
f 167 169 170
f 167 170 168
f 169 171 172
f 169 172 170
f 9 173 174
f 9 174 10
f 173 175 176
f 173 176 174
f 175 177 178
f 175 178 176
f 56 55 179
f 56 179 180
f 180 179 181
f 180 181 182
f 182 181 183
f 182 183 184
f 185 186 187
f 185 187 188
f 189 190 191
f 189 191 192
f 193 194 195
f 193 195 196
f 196 195 197
f 196 197 198
f 198 197 104
f 198 104 103
f 199 200 201
f 199 201 202
f 200 203 204
f 200 204 201
f 203 133 136
f 203 136 204
f 205 206 207
f 205 207 208
f 206 209 210
f 206 210 207
f 209 17 20
f 209 20 210
f 211 212 213
f 211 213 214
f 214 213 215
f 214 215 216
f 216 215 64
f 216 64 63
f 217 218 219
f 217 219 220
f 221 222 223
f 221 223 224
f 225 226 227
f 225 227 228
f 229 230 231
f 229 231 232
f 233 234 235
f 233 235 236
f 237 238 239
f 237 239 240
f 241 242 243
f 241 243 244
f 245 246 247
f 245 247 248
f 249 250 251
f 249 251 252
f 252 251 253
f 252 253 254
f 254 253 255
f 254 255 256
f 257 258 259
f 257 259 260
f 258 261 262
f 258 262 259
f 261 263 264
f 261 264 262
f 265 266 267
f 265 267 268
f 266 269 270
f 266 270 267
f 269 271 272
f 269 272 270
f 273 274 275
f 273 275 276
f 276 275 277
f 276 277 278
f 278 277 279
f 278 279 280
f 281 282 283
f 281 283 284
f 285 286 287
f 285 287 288
f 289 290 291
f 289 291 292
f 292 291 293
f 292 293 294
f 294 293 295
f 294 295 296
f 297 298 299
f 297 299 300
f 298 301 302
f 298 302 299
f 301 303 304
f 301 304 302
f 305 306 307
f 305 307 308
f 306 309 310
f 306 310 307
f 309 311 312
f 309 312 310
f 313 314 315
f 313 315 316
f 316 315 317
f 316 317 318
f 318 317 319
f 318 319 320
f 321 322 323
f 321 323 324
f 325 326 327
f 325 327 328
f 329 330 331
f 329 331 332
f 332 331 333
f 332 333 334
f 334 333 335
f 334 335 336
f 337 338 339
f 337 339 340
f 338 341 342
f 338 342 339
f 341 343 344
f 341 344 342
f 345 346 347
f 345 347 348
f 346 349 350
f 346 350 347
f 349 265 268
f 349 268 350
f 351 352 353
f 351 353 354
f 354 353 355
f 354 355 356
f 356 355 312
f 356 312 311
f 357 358 359
f 357 359 360
f 361 362 363
f 361 363 364
f 365 366 367
f 365 367 368
f 368 367 369
f 368 369 370
f 370 369 371
f 370 371 372
f 373 374 375
f 373 375 376
f 374 377 378
f 374 378 375
f 377 379 380
f 377 380 378
f 273 381 382
f 273 382 274
f 381 383 384
f 381 384 382
f 383 385 386
f 383 386 384
f 320 319 387
f 320 387 388
f 388 387 389
f 388 389 390
f 390 389 391
f 390 391 392
f 393 394 395
f 393 395 396
f 397 398 399
f 397 399 400
f 336 335 401
f 336 401 402
f 402 401 403
f 402 403 404
f 404 403 405
f 404 405 406
f 365 407 408
f 365 408 366
f 407 409 410
f 407 410 408
f 409 411 412
f 409 412 410
f 249 413 414
f 249 414 250
f 413 415 416
f 413 416 414
f 415 417 418
f 415 418 416
f 296 295 419
f 296 419 420
f 420 419 421
f 420 421 422
f 422 421 423
f 422 423 424
f 425 426 427
f 425 427 428
f 429 430 431
f 429 431 432
f 433 434 435
f 433 435 436
f 436 435 437
f 436 437 438
f 438 437 344
f 438 344 343
f 439 440 441
f 439 441 442
f 440 443 444
f 440 444 441
f 443 373 376
f 443 376 444
f 445 446 447
f 445 447 448
f 446 449 450
f 446 450 447
f 449 257 260
f 449 260 450
f 451 452 453
f 451 453 454
f 454 453 455
f 454 455 456
f 456 455 304
f 456 304 303
f 457 458 459
f 457 459 460
f 461 462 463
f 461 463 464
f 465 466 467
f 465 467 468
f 469 470 471
f 469 471 472
f 473 474 475
f 473 475 476
f 477 478 479
f 477 479 480
f 481 482 483
f 481 483 484
f 485 486 487
f 485 487 488
f 489 490 491
f 489 491 492
f 492 491 493
f 492 493 494
f 494 493 495
f 494 495 496
f 497 498 499
f 497 499 500
f 498 501 502
f 498 502 499
f 501 503 504
f 501 504 502
f 505 506 507
f 505 507 508
f 506 509 510
f 506 510 507
f 509 511 512
f 509 512 510
f 513 514 515
f 513 515 516
f 516 515 517
f 516 517 518
f 518 517 519
f 518 519 520
f 521 522 523
f 521 523 524
f 525 526 527
f 525 527 528
f 529 530 531
f 529 531 532
f 532 531 533
f 532 533 534
f 534 533 535
f 534 535 536
f 537 538 539
f 537 539 540
f 538 541 542
f 538 542 539
f 541 543 544
f 541 544 542
f 545 546 547
f 545 547 548
f 546 549 550
f 546 550 547
f 549 551 552
f 549 552 550
f 553 554 555
f 553 555 556
f 556 555 557
f 556 557 558
f 558 557 559
f 558 559 560
f 561 562 563
f 561 563 564
f 565 566 567
f 565 567 568
f 569 570 571
f 569 571 572
f 572 571 573
f 572 573 574
f 574 573 575
f 574 575 576
f 577 578 579
f 577 579 580
f 578 581 582
f 578 582 579
f 581 583 584
f 581 584 582
f 585 586 587
f 585 587 588
f 586 589 590
f 586 590 587
f 589 505 508
f 589 508 590
f 591 592 593
f 591 593 594
f 594 593 595
f 594 595 596
f 596 595 552
f 596 552 551
f 597 598 599
f 597 599 600
f 601 602 603
f 601 603 604
f 605 606 607
f 605 607 608
f 608 607 609
f 608 609 610
f 610 609 611
f 610 611 612
f 613 614 615
f 613 615 616
f 614 617 618
f 614 618 615
f 617 619 620
f 617 620 618
f 513 621 622
f 513 622 514
f 621 623 624
f 621 624 622
f 623 625 626
f 623 626 624
f 560 559 627
f 560 627 628
f 628 627 629
f 628 629 630
f 630 629 631
f 630 631 632
f 633 634 635
f 633 635 636
f 637 638 639
f 637 639 640
f 576 575 641
f 576 641 642
f 642 641 643
f 642 643 644
f 644 643 645
f 644 645 646
f 605 647 648
f 605 648 606
f 647 649 650
f 647 650 648
f 649 651 652
f 649 652 650
f 489 653 654
f 489 654 490
f 653 655 656
f 653 656 654
f 655 657 658
f 655 658 656
f 536 535 659
f 536 659 660
f 660 659 661
f 660 661 662
f 662 661 663
f 662 663 664
f 665 666 667
f 665 667 668
f 669 670 671
f 669 671 672
f 673 674 675
f 673 675 676
f 676 675 677
f 676 677 678
f 678 677 584
f 678 584 583
f 679 680 681
f 679 681 682
f 680 683 684
f 680 684 681
f 683 613 616
f 683 616 684
f 685 686 687
f 685 687 688
f 686 689 690
f 686 690 687
f 689 497 500
f 689 500 690
f 691 692 693
f 691 693 694
f 694 693 695
f 694 695 696
f 696 695 544
f 696 544 543
f 697 698 699
f 697 699 700
f 701 702 703
f 701 703 704
f 705 706 707
f 705 707 708
f 709 710 711
f 709 711 712
f 713 714 715
f 713 715 716
f 717 718 719
f 717 719 720
f 721 722 723
f 721 723 724
f 725 726 727
f 725 727 728
f 729 730 731
f 729 731 732
f 732 731 733
f 732 733 734
f 734 733 735
f 734 735 736
f 737 738 739
f 737 739 740
f 738 741 742
f 738 742 739
f 741 743 744
f 741 744 742
f 745 746 747
f 745 747 748
f 746 749 750
f 746 750 747
f 749 751 752
f 749 752 750
f 753 754 755
f 753 755 756
f 756 755 757
f 756 757 758
f 758 757 759
f 758 759 760
f 761 762 763
f 761 763 764
f 765 766 767
f 765 767 768
f 769 770 771
f 769 771 772
f 772 771 773
f 772 773 774
f 774 773 775
f 774 775 776
f 777 778 779
f 777 779 780
f 778 781 782
f 778 782 779
f 781 783 784
f 781 784 782
f 785 786 787
f 785 787 788
f 786 789 790
f 786 790 787
f 789 791 792
f 789 792 790
f 793 794 795
f 793 795 796
f 796 795 797
f 796 797 798
f 798 797 799
f 798 799 800
f 801 802 803
f 801 803 804
f 805 806 807
f 805 807 808
f 809 810 811
f 809 811 812
f 812 811 813
f 812 813 814
f 814 813 815
f 814 815 816
f 817 818 819
f 817 819 820
f 818 821 822
f 818 822 819
f 821 823 824
f 821 824 822
f 825 826 827
f 825 827 828
f 826 829 830
f 826 830 827
f 829 745 748
f 829 748 830
f 831 832 833
f 831 833 834
f 834 833 835
f 834 835 836
f 836 835 792
f 836 792 791
f 837 838 839
f 837 839 840
f 841 842 843
f 841 843 844
f 845 846 847
f 845 847 848
f 848 847 849
f 848 849 850
f 850 849 851
f 850 851 852
f 853 854 855
f 853 855 856
f 854 857 858
f 854 858 855
f 857 859 860
f 857 860 858
f 753 861 862
f 753 862 754
f 861 863 864
f 861 864 862
f 863 865 866
f 863 866 864
f 800 799 867
f 800 867 868
f 868 867 869
f 868 869 870
f 870 869 871
f 870 871 872
f 873 874 875
f 873 875 876
f 877 878 879
f 877 879 880
f 816 815 881
f 816 881 882
f 882 881 883
f 882 883 884
f 884 883 885
f 884 885 886
f 845 887 888
f 845 888 846
f 887 889 890
f 887 890 888
f 889 891 892
f 889 892 890
f 729 893 894
f 729 894 730
f 893 895 896
f 893 896 894
f 895 897 898
f 895 898 896
f 776 775 899
f 776 899 900
f 900 899 901
f 900 901 902
f 902 901 903
f 902 903 904
f 905 906 907
f 905 907 908
f 909 910 911
f 909 911 912
f 913 914 915
f 913 915 916
f 916 915 917
f 916 917 918
f 918 917 824
f 918 824 823
f 919 920 921
f 919 921 922
f 920 923 924
f 920 924 921
f 923 853 856
f 923 856 924
f 925 926 927
f 925 927 928
f 926 929 930
f 926 930 927
f 929 737 740
f 929 740 930
f 931 932 933
f 931 933 934
f 934 933 935
f 934 935 936
f 936 935 784
f 936 784 783
f 937 938 939
f 937 939 940
f 941 942 943
f 941 943 944
f 945 946 947
f 945 947 948
f 949 950 951
f 949 951 952
f 953 954 955
f 953 955 956
f 957 958 959
f 957 959 960
f 961 962 963
f 961 963 964
f 965 966 967
f 965 967 968
f 969 970 971
f 969 971 972
f 972 971 973
f 972 973 974
f 974 973 975
f 974 975 976
f 977 978 979
f 977 979 980
f 978 981 982
f 978 982 979
f 981 983 984
f 981 984 982
f 985 986 987
f 985 987 988
f 986 989 990
f 986 990 987
f 989 991 992
f 989 992 990
f 993 994 995
f 993 995 996
f 996 995 997
f 996 997 998
f 998 997 999
f 998 999 1000
f 1001 1002 1003
f 1001 1003 1004
f 1005 1006 1007
f 1005 1007 1008
f 1009 1010 1011
f 1009 1011 1012
f 1012 1011 1013
f 1012 1013 1014
f 1014 1013 1015
f 1014 1015 1016
f 1017 1018 1019
f 1017 1019 1020
f 1018 1021 1022
f 1018 1022 1019
f 1021 1023 1024
f 1021 1024 1022
f 1025 1026 1027
f 1025 1027 1028
f 1026 1029 1030
f 1026 1030 1027
f 1029 1031 1032
f 1029 1032 1030
f 1033 1034 1035
f 1033 1035 1036
f 1036 1035 1037
f 1036 1037 1038
f 1038 1037 1039
f 1038 1039 1040
f 1041 1042 1043
f 1041 1043 1044
f 1045 1046 1047
f 1045 1047 1048
f 1049 1050 1051
f 1049 1051 1052
f 1052 1051 1053
f 1052 1053 1054
f 1054 1053 1055
f 1054 1055 1056
f 1057 1058 1059
f 1057 1059 1060
f 1058 1061 1062
f 1058 1062 1059
f 1061 1063 1064
f 1061 1064 1062
f 1065 1066 1067
f 1065 1067 1068
f 1066 1069 1070
f 1066 1070 1067
f 1069 985 988
f 1069 988 1070
f 1071 1072 1073
f 1071 1073 1074
f 1074 1073 1075
f 1074 1075 1076
f 1076 1075 1032
f 1076 1032 1031
f 1077 1078 1079
f 1077 1079 1080
f 1081 1082 1083
f 1081 1083 1084
f 1085 1086 1087
f 1085 1087 1088
f 1088 1087 1089
f 1088 1089 1090
f 1090 1089 1091
f 1090 1091 1092
f 1093 1094 1095
f 1093 1095 1096
f 1094 1097 1098
f 1094 1098 1095
f 1097 1099 1100
f 1097 1100 1098
f 993 1101 1102
f 993 1102 994
f 1101 1103 1104
f 1101 1104 1102
f 1103 1105 1106
f 1103 1106 1104
f 1040 1039 1107
f 1040 1107 1108
f 1108 1107 1109
f 1108 1109 1110
f 1110 1109 1111
f 1110 1111 1112
f 1113 1114 1115
f 1113 1115 1116
f 1117 1118 1119
f 1117 1119 1120
f 1056 1055 1121
f 1056 1121 1122
f 1122 1121 1123
f 1122 1123 1124
f 1124 1123 1125
f 1124 1125 1126
f 1085 1127 1128
f 1085 1128 1086
f 1127 1129 1130
f 1127 1130 1128
f 1129 1131 1132
f 1129 1132 1130
f 969 1133 1134
f 969 1134 970
f 1133 1135 1136
f 1133 1136 1134
f 1135 1137 1138
f 1135 1138 1136
f 1016 1015 1139
f 1016 1139 1140
f 1140 1139 1141
f 1140 1141 1142
f 1142 1141 1143
f 1142 1143 1144
f 1145 1146 1147
f 1145 1147 1148
f 1149 1150 1151
f 1149 1151 1152
f 1153 1154 1155
f 1153 1155 1156
f 1156 1155 1157
f 1156 1157 1158
f 1158 1157 1064
f 1158 1064 1063
f 1159 1160 1161
f 1159 1161 1162
f 1160 1163 1164
f 1160 1164 1161
f 1163 1093 1096
f 1163 1096 1164
f 1165 1166 1167
f 1165 1167 1168
f 1166 1169 1170
f 1166 1170 1167
f 1169 977 980
f 1169 980 1170
f 1171 1172 1173
f 1171 1173 1174
f 1174 1173 1175
f 1174 1175 1176
f 1176 1175 1024
f 1176 1024 1023
f 1177 1178 1179
f 1177 1179 1180
f 1181 1182 1183
f 1181 1183 1184
f 1185 1186 1187
f 1185 1187 1188
f 1189 1190 1191
f 1189 1191 1192
f 1193 1194 1195
f 1193 1195 1196
f 1197 1198 1199
f 1197 1199 1200
f 1201 1202 1203
f 1201 1203 1204
f 1205 1206 1207
f 1205 1207 1208
f 1209 1210 1211
f 1209 1211 1212
f 1212 1211 1213
f 1212 1213 1214
f 1214 1213 1215
f 1214 1215 1216
f 1217 1218 1219
f 1217 1219 1220
f 1218 1221 1222
f 1218 1222 1219
f 1221 1223 1224
f 1221 1224 1222
f 1225 1226 1227
f 1225 1227 1228
f 1226 1229 1230
f 1226 1230 1227
f 1229 1231 1232
f 1229 1232 1230
f 1233 1234 1235
f 1233 1235 1236
f 1236 1235 1237
f 1236 1237 1238
f 1238 1237 1239
f 1238 1239 1240
f 1241 1242 1243
f 1241 1243 1244
f 1245 1246 1247
f 1245 1247 1248
f 1249 1250 1251
f 1249 1251 1252
f 1252 1251 1253
f 1252 1253 1254
f 1254 1253 1255
f 1254 1255 1256
f 1257 1258 1259
f 1257 1259 1260
f 1258 1261 1262
f 1258 1262 1259
f 1261 1263 1264
f 1261 1264 1262
f 1265 1266 1267
f 1265 1267 1268
f 1266 1269 1270
f 1266 1270 1267
f 1269 1271 1272
f 1269 1272 1270
f 1273 1274 1275
f 1273 1275 1276
f 1276 1275 1277
f 1276 1277 1278
f 1278 1277 1279
f 1278 1279 1280
f 1281 1282 1283
f 1281 1283 1284
f 1285 1286 1287
f 1285 1287 1288
f 1289 1290 1291
f 1289 1291 1292
f 1292 1291 1293
f 1292 1293 1294
f 1294 1293 1295
f 1294 1295 1296
f 1297 1298 1299
f 1297 1299 1300
f 1298 1301 1302
f 1298 1302 1299
f 1301 1303 1304
f 1301 1304 1302
f 1305 1306 1307
f 1305 1307 1308
f 1306 1309 1310
f 1306 1310 1307
f 1309 1225 1228
f 1309 1228 1310
f 1311 1312 1313
f 1311 1313 1314
f 1314 1313 1315
f 1314 1315 1316
f 1316 1315 1272
f 1316 1272 1271
f 1317 1318 1319
f 1317 1319 1320
f 1321 1322 1323
f 1321 1323 1324
f 1325 1326 1327
f 1325 1327 1328
f 1328 1327 1329
f 1328 1329 1330
f 1330 1329 1331
f 1330 1331 1332
f 1333 1334 1335
f 1333 1335 1336
f 1334 1337 1338
f 1334 1338 1335
f 1337 1339 1340
f 1337 1340 1338
f 1233 1341 1342
f 1233 1342 1234
f 1341 1343 1344
f 1341 1344 1342
f 1343 1345 1346
f 1343 1346 1344
f 1280 1279 1347
f 1280 1347 1348
f 1348 1347 1349
f 1348 1349 1350
f 1350 1349 1351
f 1350 1351 1352
f 1353 1354 1355
f 1353 1355 1356
f 1357 1358 1359
f 1357 1359 1360
f 1296 1295 1361
f 1296 1361 1362
f 1362 1361 1363
f 1362 1363 1364
f 1364 1363 1365
f 1364 1365 1366
f 1325 1367 1368
f 1325 1368 1326
f 1367 1369 1370
f 1367 1370 1368
f 1369 1371 1372
f 1369 1372 1370
f 1209 1373 1374
f 1209 1374 1210
f 1373 1375 1376
f 1373 1376 1374
f 1375 1377 1378
f 1375 1378 1376
f 1256 1255 1379
f 1256 1379 1380
f 1380 1379 1381
f 1380 1381 1382
f 1382 1381 1383
f 1382 1383 1384
f 1385 1386 1387
f 1385 1387 1388
f 1389 1390 1391
f 1389 1391 1392
f 1393 1394 1395
f 1393 1395 1396
f 1396 1395 1397
f 1396 1397 1398
f 1398 1397 1304
f 1398 1304 1303
f 1399 1400 1401
f 1399 1401 1402
f 1400 1403 1404
f 1400 1404 1401
f 1403 1333 1336
f 1403 1336 1404
f 1405 1406 1407
f 1405 1407 1408
f 1406 1409 1410
f 1406 1410 1407
f 1409 1217 1220
f 1409 1220 1410
f 1411 1412 1413
f 1411 1413 1414
f 1414 1413 1415
f 1414 1415 1416
f 1416 1415 1264
f 1416 1264 1263
f 1417 1418 1419
f 1417 1419 1420
f 1421 1422 1423
f 1421 1423 1424
f 1425 1426 1427
f 1425 1427 1428
f 1429 1430 1431
f 1429 1431 1432
f 1433 1434 1435
f 1433 1435 1436
f 1437 1438 1439
f 1437 1439 1440
f 1441 1442 1443
f 1441 1443 1444
f 1445 1446 1447
f 1445 1447 1448
f 1449 1450 1451
f 1449 1451 1452
f 1452 1451 1453
f 1452 1453 1454
f 1454 1453 1455
f 1454 1455 1456
f 1457 1458 1459
f 1457 1459 1460
f 1458 1461 1462
f 1458 1462 1459
f 1461 1463 1464
f 1461 1464 1462
f 1465 1466 1467
f 1465 1467 1468
f 1466 1469 1470
f 1466 1470 1467
f 1469 1471 1472
f 1469 1472 1470
f 1473 1474 1475
f 1473 1475 1476
f 1476 1475 1477
f 1476 1477 1478
f 1478 1477 1479
f 1478 1479 1480
f 1481 1482 1483
f 1481 1483 1484
f 1485 1486 1487
f 1485 1487 1488
f 1489 1490 1491
f 1489 1491 1492
f 1492 1491 1493
f 1492 1493 1494
f 1494 1493 1495
f 1494 1495 1496
f 1497 1498 1499
f 1497 1499 1500
f 1498 1501 1502
f 1498 1502 1499
f 1501 1503 1504
f 1501 1504 1502
f 1505 1506 1507
f 1505 1507 1508
f 1506 1509 1510
f 1506 1510 1507
f 1509 1511 1512
f 1509 1512 1510
f 1513 1514 1515
f 1513 1515 1516
f 1516 1515 1517
f 1516 1517 1518
f 1518 1517 1519
f 1518 1519 1520
f 1521 1522 1523
f 1521 1523 1524
f 1525 1526 1527
f 1525 1527 1528
f 1529 1530 1531
f 1529 1531 1532
f 1532 1531 1533
f 1532 1533 1534
f 1534 1533 1535
f 1534 1535 1536
f 1537 1538 1539
f 1537 1539 1540
f 1538 1541 1542
f 1538 1542 1539
f 1541 1543 1544
f 1541 1544 1542
f 1545 1546 1547
f 1545 1547 1548
f 1546 1549 1550
f 1546 1550 1547
f 1549 1465 1468
f 1549 1468 1550
f 1551 1552 1553
f 1551 1553 1554
f 1554 1553 1555
f 1554 1555 1556
f 1556 1555 1512
f 1556 1512 1511
f 1557 1558 1559
f 1557 1559 1560
f 1561 1562 1563
f 1561 1563 1564
f 1565 1566 1567
f 1565 1567 1568
f 1568 1567 1569
f 1568 1569 1570
f 1570 1569 1571
f 1570 1571 1572
f 1573 1574 1575
f 1573 1575 1576
f 1574 1577 1578
f 1574 1578 1575
f 1577 1579 1580
f 1577 1580 1578
f 1473 1581 1582
f 1473 1582 1474
f 1581 1583 1584
f 1581 1584 1582
f 1583 1585 1586
f 1583 1586 1584
f 1520 1519 1587
f 1520 1587 1588
f 1588 1587 1589
f 1588 1589 1590
f 1590 1589 1591
f 1590 1591 1592
f 1593 1594 1595
f 1593 1595 1596
f 1597 1598 1599
f 1597 1599 1600
f 1536 1535 1601
f 1536 1601 1602
f 1602 1601 1603
f 1602 1603 1604
f 1604 1603 1605
f 1604 1605 1606
f 1565 1607 1608
f 1565 1608 1566
f 1607 1609 1610
f 1607 1610 1608
f 1609 1611 1612
f 1609 1612 1610
f 1449 1613 1614
f 1449 1614 1450
f 1613 1615 1616
f 1613 1616 1614
f 1615 1617 1618
f 1615 1618 1616
f 1496 1495 1619
f 1496 1619 1620
f 1620 1619 1621
f 1620 1621 1622
f 1622 1621 1623
f 1622 1623 1624
f 1625 1626 1627
f 1625 1627 1628
f 1629 1630 1631
f 1629 1631 1632
f 1633 1634 1635
f 1633 1635 1636
f 1636 1635 1637
f 1636 1637 1638
f 1638 1637 1544
f 1638 1544 1543
f 1639 1640 1641
f 1639 1641 1642
f 1640 1643 1644
f 1640 1644 1641
f 1643 1573 1576
f 1643 1576 1644
f 1645 1646 1647
f 1645 1647 1648
f 1646 1649 1650
f 1646 1650 1647
f 1649 1457 1460
f 1649 1460 1650
f 1651 1652 1653
f 1651 1653 1654
f 1654 1653 1655
f 1654 1655 1656
f 1656 1655 1504
f 1656 1504 1503
f 1657 1658 1659
f 1657 1659 1660
f 1661 1662 1663
f 1661 1663 1664
f 1665 1666 1667
f 1665 1667 1668
f 1669 1670 1671
f 1669 1671 1672
f 1673 1674 1675
f 1673 1675 1676
f 1677 1678 1679
f 1677 1679 1680
f 1681 1682 1683
f 1681 1683 1684
f 1685 1686 1687
f 1685 1687 1688
f 1689 1690 1691
f 1689 1691 1692
f 1692 1691 1693
f 1692 1693 1694
f 1694 1693 1695
f 1694 1695 1696
f 1697 1698 1699
f 1697 1699 1700
f 1698 1701 1702
f 1698 1702 1699
f 1701 1703 1704
f 1701 1704 1702
f 1705 1706 1707
f 1705 1707 1708
f 1706 1709 1710
f 1706 1710 1707
f 1709 1711 1712
f 1709 1712 1710
f 1713 1714 1715
f 1713 1715 1716
f 1716 1715 1717
f 1716 1717 1718
f 1718 1717 1719
f 1718 1719 1720
f 1721 1722 1723
f 1721 1723 1724
f 1725 1726 1727
f 1725 1727 1728
f 1729 1730 1731
f 1729 1731 1732
f 1732 1731 1733
f 1732 1733 1734
f 1734 1733 1735
f 1734 1735 1736
f 1737 1738 1739
f 1737 1739 1740
f 1738 1741 1742
f 1738 1742 1739
f 1741 1743 1744
f 1741 1744 1742
f 1745 1746 1747
f 1745 1747 1748
f 1746 1749 1750
f 1746 1750 1747
f 1749 1751 1752
f 1749 1752 1750
f 1753 1754 1755
f 1753 1755 1756
f 1756 1755 1757
f 1756 1757 1758
f 1758 1757 1759
f 1758 1759 1760
f 1761 1762 1763
f 1761 1763 1764
f 1765 1766 1767
f 1765 1767 1768
f 1769 1770 1771
f 1769 1771 1772
f 1772 1771 1773
f 1772 1773 1774
f 1774 1773 1775
f 1774 1775 1776
f 1777 1778 1779
f 1777 1779 1780
f 1778 1781 1782
f 1778 1782 1779
f 1781 1783 1784
f 1781 1784 1782
f 1785 1786 1787
f 1785 1787 1788
f 1786 1789 1790
f 1786 1790 1787
f 1789 1705 1708
f 1789 1708 1790
f 1791 1792 1793
f 1791 1793 1794
f 1794 1793 1795
f 1794 1795 1796
f 1796 1795 1752
f 1796 1752 1751
f 1797 1798 1799
f 1797 1799 1800
f 1801 1802 1803
f 1801 1803 1804
f 1805 1806 1807
f 1805 1807 1808
f 1808 1807 1809
f 1808 1809 1810
f 1810 1809 1811
f 1810 1811 1812
f 1813 1814 1815
f 1813 1815 1816
f 1814 1817 1818
f 1814 1818 1815
f 1817 1819 1820
f 1817 1820 1818
f 1713 1821 1822
f 1713 1822 1714
f 1821 1823 1824
f 1821 1824 1822
f 1823 1825 1826
f 1823 1826 1824
f 1760 1759 1827
f 1760 1827 1828
f 1828 1827 1829
f 1828 1829 1830
f 1830 1829 1831
f 1830 1831 1832
f 1833 1834 1835
f 1833 1835 1836
f 1837 1838 1839
f 1837 1839 1840
f 1776 1775 1841
f 1776 1841 1842
f 1842 1841 1843
f 1842 1843 1844
f 1844 1843 1845
f 1844 1845 1846
f 1805 1847 1848
f 1805 1848 1806
f 1847 1849 1850
f 1847 1850 1848
f 1849 1851 1852
f 1849 1852 1850
f 1689 1853 1854
f 1689 1854 1690
f 1853 1855 1856
f 1853 1856 1854
f 1855 1857 1858
f 1855 1858 1856
f 1736 1735 1859
f 1736 1859 1860
f 1860 1859 1861
f 1860 1861 1862
f 1862 1861 1863
f 1862 1863 1864
f 1865 1866 1867
f 1865 1867 1868
f 1869 1870 1871
f 1869 1871 1872
f 1873 1874 1875
f 1873 1875 1876
f 1876 1875 1877
f 1876 1877 1878
f 1878 1877 1784
f 1878 1784 1783
f 1879 1880 1881
f 1879 1881 1882
f 1880 1883 1884
f 1880 1884 1881
f 1883 1813 1816
f 1883 1816 1884
f 1885 1886 1887
f 1885 1887 1888
f 1886 1889 1890
f 1886 1890 1887
f 1889 1697 1700
f 1889 1700 1890
f 1891 1892 1893
f 1891 1893 1894
f 1894 1893 1895
f 1894 1895 1896
f 1896 1895 1744
f 1896 1744 1743
f 1897 1898 1899
f 1897 1899 1900
f 1901 1902 1903
f 1901 1903 1904
f 1905 1906 1907
f 1905 1907 1908
f 1909 1910 1911
f 1909 1911 1912
f 1913 1914 1915
f 1913 1915 1916
f 1917 1918 1919
f 1917 1919 1920
# 1440 faces, 0 coords texture

# End of File
