####
#
# OBJ File Generated by Meshlab
#
####
# Object Tile1x1x1.obj
#
# Vertices: 288
# Faces: 228
#
####
v 0.6520000 0.3480000 0.6520000
v 0.3480000 0.3480000 0.6520000
v 0.3480000 0.6520000 0.6520000
v 0.6520000 0.6520000 0.6520000
v 0.5800000 0.4200000 1.0000000
v 0.5800000 0.5800000 1.0000000
v 0.4200000 0.5800000 1.0000000
v 0.4200000 0.4200000 1.0000000
v 0.6520000 0.3480000 0.6520000
v 0.6520000 0.6520000 0.6520000
v 0.6227174 0.6227174 0.6896339
v 0.6227174 0.3772826 0.6896339
v 0.6022710 0.6022710 0.7328234
v 0.6022710 0.3977290 0.7328234
v 0.5817988 0.5817988 0.8281117
v 0.5817988 0.4182012 0.8281117
v 0.5800000 0.5800000 1.0000000
v 0.5800000 0.4200000 1.0000000
v 0.3480000 0.3480000 0.6520000
v 0.3772826 0.3772826 0.6896339
v 0.3772826 0.6227174 0.6896339
v 0.3480000 0.6520000 0.6520000
v 0.3977290 0.3977290 0.7328234
v 0.3977290 0.6022710 0.7328234
v 0.4182012 0.4182012 0.8281117
v 0.4182012 0.5817988 0.8281117
v 0.4200000 0.4200000 1.0000000
v 0.4200000 0.5800000 1.0000000
v 0.3480000 0.6520000 0.6520000
v 0.3772826 0.6227174 0.6896339
v 0.6227174 0.6227174 0.6896339
v 0.6520000 0.6520000 0.6520000
v 0.3977290 0.6022710 0.7328234
v 0.6022710 0.6022710 0.7328234
v 0.4182012 0.5817988 0.8281117
v 0.5817988 0.5817988 0.8281117
v 0.4200000 0.5800000 1.0000000
v 0.5800000 0.5800000 1.0000000
v 0.3480000 0.3480000 0.6520000
v 0.6520000 0.3480000 0.6520000
v 0.6227174 0.3772826 0.6896339
v 0.3772826 0.3772826 0.6896339
v 0.6022710 0.3977290 0.7328234
v 0.3977290 0.3977290 0.7328234
v 0.5817988 0.4182012 0.8281117
v 0.4182012 0.4182012 0.8281117
v 0.5800000 0.4200000 1.0000000
v 0.4200000 0.4200000 1.0000000
v 0.5800000 0.4200000 0.0000000
v 0.4200000 0.4200000 0.0000000
v 0.4200000 0.5800000 0.0000000
v 0.5800000 0.5800000 0.0000000
v 0.6520000 0.3480000 0.3480000
v 0.6520000 0.6520000 0.3480000
v 0.3480000 0.6520000 0.3480000
v 0.3480000 0.3480000 0.3480000
v 0.5800000 0.4200000 0.0000000
v 0.5800000 0.5800000 0.0000000
v 0.5818012 0.5818012 0.1719117
v 0.5818012 0.4181988 0.1719117
v 0.6022790 0.6022790 0.2671984
v 0.6022790 0.3977210 0.2671984
v 0.6227263 0.6227263 0.3103808
v 0.6227263 0.3772737 0.3103808
v 0.6520000 0.6520000 0.3480000
v 0.6520000 0.3480000 0.3480000
v 0.4200000 0.4200000 0.0000000
v 0.4181988 0.4181988 0.1719117
v 0.4181988 0.5818012 0.1719117
v 0.4200000 0.5800000 0.0000000
v 0.3977210 0.3977210 0.2671984
v 0.3977210 0.6022790 0.2671984
v 0.3772737 0.3772737 0.3103808
v 0.3772737 0.6227263 0.3103808
v 0.3480000 0.3480000 0.3480000
v 0.3480000 0.6520000 0.3480000
v 0.4200000 0.5800000 0.0000000
v 0.4181988 0.5818012 0.1719117
v 0.5818012 0.5818012 0.1719117
v 0.5800000 0.5800000 0.0000000
v 0.3977210 0.6022790 0.2671984
v 0.6022790 0.6022790 0.2671984
v 0.3772737 0.6227263 0.3103808
v 0.6227263 0.6227263 0.3103808
v 0.3480000 0.6520000 0.3480000
v 0.6520000 0.6520000 0.3480000
v 0.4200000 0.4200000 0.0000000
v 0.5800000 0.4200000 0.0000000
v 0.5818012 0.4181988 0.1719117
v 0.4181988 0.4181988 0.1719117
v 0.6022790 0.3977210 0.2671984
v 0.3977210 0.3977210 0.2671984
v 0.6227263 0.3772737 0.3103808
v 0.3772737 0.3772737 0.3103808
v 0.6520000 0.3480000 0.3480000
v 0.3480000 0.3480000 0.3480000
v 0.5800000 1.0000000 0.4200000
v 0.4200000 1.0000000 0.4200000
v 0.4200000 1.0000000 0.5800000
v 0.5800000 1.0000000 0.5800000
v 0.6520000 0.6520000 0.3480000
v 0.6520000 0.6520000 0.6520000
v 0.3480000 0.6520000 0.6520000
v 0.3480000 0.6520000 0.3480000
v 0.5800000 1.0000000 0.4200000
v 0.5800000 1.0000000 0.5800000
v 0.5818012 0.8280883 0.5818012
v 0.5818012 0.8280883 0.4181988
v 0.6022790 0.7328016 0.6022790
v 0.6022790 0.7328016 0.3977210
v 0.6227263 0.6896192 0.6227263
v 0.6227263 0.6896192 0.3772737
v 0.6520000 0.6520000 0.6520000
v 0.6520000 0.6520000 0.3480000
v 0.4200000 1.0000000 0.4200000
v 0.4181988 0.8280883 0.4181988
v 0.4181988 0.8280883 0.5818012
v 0.4200000 1.0000000 0.5800000
v 0.3977210 0.7328016 0.3977210
v 0.3977210 0.7328016 0.6022790
v 0.3772737 0.6896192 0.3772737
v 0.3772737 0.6896192 0.6227263
v 0.3480000 0.6520000 0.3480000
v 0.3480000 0.6520000 0.6520000
v 0.4200000 1.0000000 0.5800000
v 0.4181988 0.8280883 0.5818012
v 0.5818012 0.8280883 0.5818012
v 0.5800000 1.0000000 0.5800000
v 0.3977210 0.7328016 0.6022790
v 0.6022790 0.7328016 0.6022790
v 0.3772737 0.6896192 0.6227263
v 0.6227263 0.6896192 0.6227263
v 0.4200000 1.0000000 0.4200000
v 0.5800000 1.0000000 0.4200000
v 0.5818012 0.8280883 0.4181988
v 0.4181988 0.8280883 0.4181988
v 0.6022790 0.7328016 0.3977210
v 0.3977210 0.7328016 0.3977210
v 0.6227263 0.6896192 0.3772737
v 0.3772737 0.6896192 0.3772737
v 0.6520000 0.3480000 0.3480000
v 0.3480000 0.3480000 0.3480000
v 0.3480000 0.3480000 0.6520000
v 0.6520000 0.3480000 0.6520000
v 0.5800000 0.0000000 0.4200000
v 0.5800000 0.0000000 0.5800000
v 0.4200000 0.0000000 0.5800000
v 0.4200000 0.0000000 0.4200000
v 0.6520000 0.3480000 0.3480000
v 0.6520000 0.3480000 0.6520000
v 0.6227174 0.3103661 0.6227174
v 0.6227174 0.3103661 0.3772826
v 0.6022710 0.2671766 0.6022710
v 0.6022710 0.2671766 0.3977290
v 0.5817988 0.1718883 0.5817988
v 0.5817988 0.1718883 0.4182012
v 0.5800000 0.0000000 0.5800000
v 0.5800000 0.0000000 0.4200000
v 0.3480000 0.3480000 0.3480000
v 0.3772826 0.3103661 0.3772826
v 0.3772826 0.3103661 0.6227174
v 0.3480000 0.3480000 0.6520000
v 0.3977290 0.2671766 0.3977290
v 0.3977290 0.2671766 0.6022710
v 0.4182012 0.1718883 0.4182012
v 0.4182012 0.1718883 0.5817988
v 0.4200000 0.0000000 0.4200000
v 0.4200000 0.0000000 0.5800000
v 0.3772826 0.3103661 0.6227174
v 0.6227174 0.3103661 0.6227174
v 0.3977290 0.2671766 0.6022710
v 0.6022710 0.2671766 0.6022710
v 0.4182012 0.1718883 0.5817988
v 0.5817988 0.1718883 0.5817988
v 0.4200000 0.0000000 0.5800000
v 0.5800000 0.0000000 0.5800000
v 0.6227174 0.3103661 0.3772826
v 0.3772826 0.3103661 0.3772826
v 0.6022710 0.2671766 0.3977290
v 0.3977290 0.2671766 0.3977290
v 0.5817988 0.1718883 0.4182012
v 0.4182012 0.1718883 0.4182012
v 0.5800000 0.0000000 0.4200000
v 0.4200000 0.0000000 0.4200000
v 0.6520000 0.6520000 0.3480000
v 0.6520000 0.3480000 0.3480000
v 0.6520000 0.3480000 0.6520000
v 0.6520000 0.6520000 0.6520000
v 1.0000000 0.5800000 0.4200000
v 1.0000000 0.5800000 0.5800000
v 1.0000000 0.4200000 0.5800000
v 1.0000000 0.4200000 0.4200000
v 0.6896339 0.6227174 0.6227174
v 0.6896339 0.6227174 0.3772826
v 0.7328234 0.6022710 0.6022710
v 0.7328234 0.6022710 0.3977290
v 0.8281117 0.5817988 0.5817988
v 0.8281117 0.5817988 0.4182012
v 1.0000000 0.5800000 0.5800000
v 1.0000000 0.5800000 0.4200000
v 0.6896339 0.3772826 0.3772826
v 0.6896339 0.3772826 0.6227174
v 0.7328234 0.3977290 0.3977290
v 0.7328234 0.3977290 0.6022710
v 0.8281117 0.4182012 0.4182012
v 0.8281117 0.4182012 0.5817988
v 1.0000000 0.4200000 0.4200000
v 1.0000000 0.4200000 0.5800000
v 0.6896339 0.3772826 0.6227174
v 0.6896339 0.6227174 0.6227174
v 0.7328234 0.3977290 0.6022710
v 0.7328234 0.6022710 0.6022710
v 0.8281117 0.4182012 0.5817988
v 0.8281117 0.5817988 0.5817988
v 1.0000000 0.4200000 0.5800000
v 1.0000000 0.5800000 0.5800000
v 0.6896339 0.6227174 0.3772826
v 0.6896339 0.3772826 0.3772826
v 0.7328234 0.6022710 0.3977290
v 0.7328234 0.3977290 0.3977290
v 0.8281117 0.5817988 0.4182012
v 0.8281117 0.4182012 0.4182012
v 1.0000000 0.5800000 0.4200000
v 1.0000000 0.4200000 0.4200000
v 0.0000000 0.5800000 0.4200000
v 0.0000000 0.4200000 0.4200000
v 0.0000000 0.4200000 0.5800000
v 0.0000000 0.5800000 0.5800000
v 0.3480000 0.6520000 0.3480000
v 0.3480000 0.6520000 0.6520000
v 0.3480000 0.3480000 0.6520000
v 0.3480000 0.3480000 0.3480000
v 0.0000000 0.5800000 0.4200000
v 0.0000000 0.5800000 0.5800000
v 0.1719117 0.5818012 0.5818012
v 0.1719117 0.5818012 0.4181988
v 0.2671984 0.6022790 0.6022790
v 0.2671984 0.6022790 0.3977210
v 0.3103808 0.6227263 0.6227263
v 0.3103808 0.6227263 0.3772737
v 0.0000000 0.4200000 0.4200000
v 0.1719117 0.4181988 0.4181988
v 0.1719117 0.4181988 0.5818012
v 0.0000000 0.4200000 0.5800000
v 0.2671984 0.3977210 0.3977210
v 0.2671984 0.3977210 0.6022790
v 0.3103808 0.3772737 0.3772737
v 0.3103808 0.3772737 0.6227263
v 0.0000000 0.4200000 0.5800000
v 0.1719117 0.4181988 0.5818012
v 0.1719117 0.5818012 0.5818012
v 0.0000000 0.5800000 0.5800000
v 0.2671984 0.3977210 0.6022790
v 0.2671984 0.6022790 0.6022790
v 0.3103808 0.3772737 0.6227263
v 0.3103808 0.6227263 0.6227263
v 0.0000000 0.4200000 0.4200000
v 0.0000000 0.5800000 0.4200000
v 0.1719117 0.5818012 0.4181988
v 0.1719117 0.4181988 0.4181988
v 0.2671984 0.6022790 0.3977210
v 0.2671984 0.3977210 0.3977210
v 0.3103808 0.6227263 0.3772737
v 0.3103808 0.3772737 0.3772737
v 0.3480000 0.6520000 0.3480000
v 0.3480000 0.3480000 0.3480000
v 0.3480000 0.3480000 0.6520000
v 0.3480000 0.6520000 0.6520000
v 0.6520000 0.6520000 0.3480000
v 0.6520000 0.6520000 0.6520000
v 0.6520000 0.3480000 0.6520000
v 0.6520000 0.3480000 0.3480000
v 0.3480000 0.6520000 0.3480000
v 0.3480000 0.6520000 0.6520000
v 0.6520000 0.6520000 0.6520000
v 0.6520000 0.6520000 0.3480000
v 0.3480000 0.3480000 0.3480000
v 0.6520000 0.3480000 0.3480000
v 0.6520000 0.3480000 0.6520000
v 0.3480000 0.3480000 0.6520000
v 0.3480000 0.3480000 0.6520000
v 0.6520000 0.3480000 0.6520000
v 0.6520000 0.6520000 0.6520000
v 0.3480000 0.6520000 0.6520000
v 0.3480000 0.3480000 0.3480000
v 0.3480000 0.6520000 0.3480000
v 0.6520000 0.6520000 0.3480000
v 0.6520000 0.3480000 0.3480000
# 288 vertices, 0 vertices normals

f 1 2 3
f 1 3 4
f 5 6 7
f 5 7 8
f 9 10 11
f 9 11 12
f 12 11 13
f 12 13 14
f 14 13 15
f 14 15 16
f 16 15 17
f 16 17 18
f 19 20 21
f 19 21 22
f 20 23 24
f 20 24 21
f 23 25 26
f 23 26 24
f 25 27 28
f 25 28 26
f 29 30 31
f 29 31 32
f 30 33 34
f 30 34 31
f 33 35 36
f 33 36 34
f 35 37 38
f 35 38 36
f 39 40 41
f 39 41 42
f 42 41 43
f 42 43 44
f 44 43 45
f 44 45 46
f 46 45 47
f 46 47 48
f 49 50 51
f 49 51 52
f 53 54 55
f 53 55 56
f 57 58 59
f 57 59 60
f 60 59 61
f 60 61 62
f 62 61 63
f 62 63 64
f 64 63 65
f 64 65 66
f 67 68 69
f 67 69 70
f 68 71 72
f 68 72 69
f 71 73 74
f 71 74 72
f 73 75 76
f 73 76 74
f 77 78 79
f 77 79 80
f 78 81 82
f 78 82 79
f 81 83 84
f 81 84 82
f 83 85 86
f 83 86 84
f 87 88 89
f 87 89 90
f 90 89 91
f 90 91 92
f 92 91 93
f 92 93 94
f 94 93 95
f 94 95 96
f 97 98 99
f 97 99 100
f 101 102 103
f 101 103 104
f 105 106 107
f 105 107 108
f 108 107 109
f 108 109 110
f 110 109 111
f 110 111 112
f 112 111 113
f 112 113 114
f 115 116 117
f 115 117 118
f 116 119 120
f 116 120 117
f 119 121 122
f 119 122 120
f 121 123 124
f 121 124 122
f 125 126 127
f 125 127 128
f 126 129 130
f 126 130 127
f 129 131 132
f 129 132 130
f 131 29 32
f 131 32 132
f 133 134 135
f 133 135 136
f 136 135 137
f 136 137 138
f 138 137 139
f 138 139 140
f 140 139 86
f 140 86 85
f 141 142 143
f 141 143 144
f 145 146 147
f 145 147 148
f 149 150 151
f 149 151 152
f 152 151 153
f 152 153 154
f 154 153 155
f 154 155 156
f 156 155 157
f 156 157 158
f 159 160 161
f 159 161 162
f 160 163 164
f 160 164 161
f 163 165 166
f 163 166 164
f 165 167 168
f 165 168 166
f 39 169 170
f 39 170 40
f 169 171 172
f 169 172 170
f 171 173 174
f 171 174 172
f 173 175 176
f 173 176 174
f 96 95 177
f 96 177 178
f 178 177 179
f 178 179 180
f 180 179 181
f 180 181 182
f 182 181 183
f 182 183 184
f 185 186 187
f 185 187 188
f 189 190 191
f 189 191 192
f 114 113 193
f 114 193 194
f 194 193 195
f 194 195 196
f 196 195 197
f 196 197 198
f 198 197 199
f 198 199 200
f 149 201 202
f 149 202 150
f 201 203 204
f 201 204 202
f 203 205 206
f 203 206 204
f 205 207 208
f 205 208 206
f 9 209 210
f 9 210 10
f 209 211 212
f 209 212 210
f 211 213 214
f 211 214 212
f 213 215 216
f 213 216 214
f 66 65 217
f 66 217 218
f 218 217 219
f 218 219 220
f 220 219 221
f 220 221 222
f 222 221 223
f 222 223 224
f 225 226 227
f 225 227 228
f 229 230 231
f 229 231 232
f 233 234 235
f 233 235 236
f 236 235 237
f 236 237 238
f 238 237 239
f 238 239 240
f 240 239 124
f 240 124 123
f 241 242 243
f 241 243 244
f 242 245 246
f 242 246 243
f 245 247 248
f 245 248 246
f 247 159 162
f 247 162 248
f 249 250 251
f 249 251 252
f 250 253 254
f 250 254 251
f 253 255 256
f 253 256 254
f 255 19 22
f 255 22 256
f 257 258 259
f 257 259 260
f 260 259 261
f 260 261 262
f 262 261 263
f 262 263 264
f 264 263 76
f 264 76 75
f 265 266 267
f 265 267 268
f 269 270 271
f 269 271 272
f 273 274 275
f 273 275 276
f 277 278 279
f 277 279 280
f 281 282 283
f 281 283 284
f 285 286 287
f 285 287 288
# 228 faces, 0 coords texture

# End of File
